<svg xmlns="http://www.w3.org/2000/svg" viewBox="0 0 34200 600" width="34200" height="600"><path d="M300 300zM450 180zM900.124866 299.8127l-.114611-.397821c-.000604-.017192-.025939-.017192-.026843 0l-.112802.397219c-.002413.008143-.004524.016588-.006032.025033-.003016.017494-.015382.03167-.032273.036797-.01689.005127-.025033.008143-.037097.01327l-.246716.10677c-.01689.000905-.01689.025637 0 .026843l.246716.107071c.012064.005127.02443.00935.037097.01327.012668.003922.029257.019606.032273.037099.003016.017493.003619.016588.006032.024732l.111595.392393c.000603.017192.025938.017192.026843 0l.115818-.392393c.002413-.008445.004826-.01689.006334-.025335.003318-.017494.016287-.03167.033177-.036495.012064-.003318.024129-.00754.03559-.012668l.251541-.106166c.01689-.000905.01689-.025637 0-.026843l-.251843-.10858c-.011763-.005127-.023827-.00935-.035891-.012968-.012065-.00362-.02986-.019303-.032876-.037098-.003016-.017795-.00362-.016287-.006032-.02443zM1050 180zM1500.541067 299.1884l-.496632-1.723834c-.002613-.074494-.112395-.074494-.116316 0l-.48879 1.72122c-.010455.035287-.019604.07188-.026138.108475-.01307.075801-.066653.137227-.139841.159445-.073188.022217-.108475.035286-.160752.057504l-1.069064.462652c-.073188.00392-.073188.111088 0 .116316l1.069064.463958c.052277.022218.105861.040515.160752.057505.05489.01699.126772.08495.13984.160751.01307.075802.015684.071881.02614.107168l.483561 1.70031c.002614.074494.112396.074494.116317 0l.501859-1.70031c.010455-.036594.02091-.073188.027445-.109781.014376-.075802.070574-.137227.143762-.158138.052277-.014376.104554-.032673.154217-.054891l1.089975-.460038c.073188-.00392.073188-.111088 0-.116316l-1.091282-.470493c-.05097-.022217-.103247-.040514-.155524-.056197-.052277-.015684-.129385-.083644-.142455-.160752-.013069-.077109-.015683-.070574-.026138-.105861zM1650 180zM2101.327228 298.009159l-1.218229-4.228534c-.006411-.182735-.275704-.182735-.285321 0l-1.198993 4.222122c-.025647.086558-.048088.176322-.064118.266087-.032058.18594-.163499.336615-.343027.391115-.179529.0545-.266087.086558-.394321.141058l-2.622397 1.134876c-.179528.009617-.179528.272498 0 .285322l2.622397 1.138081c.128234.0545.259675.099382.39432.141058.134647.041676.31097.208381.343028.394321.032059.18594.03847.176323.064118.262881l1.186169 4.170829c.006412.182734.275704.182734.285322 0l1.231052-4.170829c.025646-.089764.051293-.179528.067323-.269292.035264-.18594.173116-.336616.352645-.38791.128234-.035264.256469-.080146.378292-.134646l2.67369-1.128464c.179528-.009618.179528-.272498 0-.285322l-2.676896-1.15411c-.125029-.0545-.253264-.099383-.381498-.137853-.128235-.03847-.31738-.205175-.34944-.394321-.032058-.189146-.03847-.173117-.064116-.259675zM2250 180zM2702.588425 296.117362l-2.375849-8.246697c-.012505-.356377-.537692-.356377-.556449 0l-2.338336 8.234193c-.050017.16881-.093783.343873-.125044.518935-.062523.36263-.318864.656485-.66899.762773-.350124.106288-.518935.16881-.769024.275098l-5.114328 2.213291c-.350125.018757-.350125.53144 0 .55645l5.114328 2.219542c.25009.106288.50643.19382.769025.275099.262594.081279.606466.406395.668989.769024.062522.36263.075027.343873.125044.512684l2.313327 8.134157c.012505.356377.537692.356377.556449 0l2.400858-8.134157c.050018-.175063.100036-.350125.131297-.525188.068775-.36263.33762-.656485.687746-.75652.25009-.068775.500178-.156306.737763-.262594l5.214364-2.200787c.350125-.018756.350125-.53144 0-.556449l-5.220616-2.250804c-.243837-.106288-.493926-.19382-.744016-.268846-.25009-.075027-.618971-.400143-.681493-.769025-.062523-.368882-.075027-.33762-.125045-.50643zM2850 180zM3304.45688 293.314679l-4.090856-14.19958c-.02153-.613628-.925825-.613628-.958122 0l-4.026264 14.178049c-.086123.290666-.161481.592098-.215308.89353-.107654.624393-.549036 1.130368-1.1519 1.31338-.602862.183012-.893529.290666-1.324145.473678l-8.806107 3.810956c-.602864.032296-.602864.91506 0 .958121l8.806107 3.821722c.430616.183012.871998.333728 1.324146.473678.452147.13995 1.044245.699752 1.151899 1.324146.107654.624394.129185.592097.215308.882764l3.983203 14.005801c.02153.613629.925825.613629.958121 0l4.133919-14.005801c.086123-.301432.172246-.602864.226073-.904295.11842-.624394.581333-1.130368 1.184196-1.302615.430616-.11842.861233-.269135 1.270318-.452147l8.978354-3.789425c.602864-.032297.602864-.91506 0-.958122l-8.989119-3.875549c-.419851-.183012-.850468-.333727-1.281084-.462912-.430617-.129185-1.065776-.688987-1.17343-1.324146-.107654-.63516-.129185-.581332-.215308-.871999zM3450.000854 179.998719l-.000784-.002721c-.000004-.000118-.000177-.000118-.000183 0l-.000772.002717c-.000017.000055-.000031.000113-.000041.00017-.000021.00012-.000106.000218-.000221.000253-.000116.000035-.000171.000055-.000254.00009l-.001687.00073c-.000116.000007-.000116.000176 0 .000184l.001687.000733c.000083.000035.000167.000064.000254.00009.000087.000027.0002.000135.00022.000254.000021.00012.000025.000114.000042.00017l.000763.002684c.000004.000117.000178.000117.000184 0l.000792-.002685c.000017-.000057.000033-.000115.000043-.000173.000023-.00012.000112-.000216.000227-.00025.000083-.000022.000165-.000051.000244-.000086l.00172-.000726c.000116-.000007.000116-.000176 0-.000184l-.001722-.000743c-.00008-.000035-.000163-.000064-.000246-.000088-.000082-.000025-.000204-.000132-.000225-.000254-.00002-.000122-.000024-.000112-.00004-.000167zM3907.0674 289.3989l-6.486985-22.51667c-.034143-.973048-1.468108-.973048-1.51932 0l-6.38456 22.482527c-.136569.460918-.256066.938906-.341421 1.416895-.17071.990118-.870622 1.792456-1.826599 2.082663-.955977.290208-1.416894.460918-2.099735.751125l-13.96409 6.04314c-.955977.051213-.955977 1.451036 0 1.51932l13.96409 6.06021c.682841.290208 1.382753.529202 2.099735.751125.716983.221924 1.655889 1.109616 1.826599 2.099735.17071.99012.204852.938906.34142 1.399824l6.316276 22.20939c.034142.973049 1.468107.973049 1.51932 0l6.55527-22.20939c.136569-.477989.273137-.955977.358492-1.433966.187781-.990119.921835-1.792456 1.877812-2.065593.68284-.18778 1.36568-.426775 2.01438-.716982l14.237226-6.008998c.955977-.051213.955977-1.451036 0-1.51932l-14.254298-6.145566c-.66577-.290207-1.34861-.529201-2.03145-.734054-.682841-.204852-1.690031-1.092545-1.860741-2.099734-.17071-1.00719-.204852-.921835-.34142-1.382753zM4050.051 179.9235l-.046812-.162487c-.000246-.007022-.010594-.007022-.010963 0l-.046073.16224c-.000986.003326-.001848.006776-.002464.010225-.001232.007145-.006283.012935-.013181.015029-.006899.002094-.010225.003326-.015152.00542l-.10077.04361c-.006898.000369-.006898.01047 0 .010963l.10077.043732c.004927.002094.009978.003819.015152.00542.005174.001602.01195.008008.013181.015153.001232.007145.001478.006775.002464.010101l.04558.16027c.000246.007021.010594.007021.010964 0l.047304-.16027c.000986-.003449.001971-.006898.002587-.010348.001355-.007145.006652-.012934.013551-.014906.004928-.001355.009855-.00308.014536-.005173l.10274-.043363c.006899-.00037.006899-.010471 0-.010964l-.102863-.044348c-.004804-.002094-.009732-.003819-.01466-.005297-.004927-.001478-.012195-.007884-.013427-.015152-.001232-.007268-.001478-.006653-.002464-.009979zM4510.465733 284.3014l-9.606228-33.343724c-.05056-1.440934-2.174042-1.440934-2.24988 0l-9.454551 33.293165c-.202237.682548-.379194 1.390375-.505591 2.098203-.252796 1.466214-1.289257 2.654352-2.704912 3.084105-1.415655.429752-2.098202.682548-3.109384 1.1123l-20.678671 8.94896c-1.415655.075839-1.415655 2.148762 0 2.24988l20.67867 8.97424c1.011183.429752 2.047644.783666 3.109385 1.1123 1.061741.328634 2.452116 1.64317 2.704912 3.109384.252795 1.466214.303354 1.390375.50559 2.072923l9.353434 32.888693c.050559 1.440934 2.17404 1.440934 2.24988 0l9.707346-32.888693c.202236-.707827.404473-1.415655.53087-2.123482.278076-1.466214 1.365096-2.654353 2.78075-3.058825 1.011183-.278075 2.022365-.631989 2.982988-1.061741l21.083143-8.898401c1.415655-.07584 1.415655-2.148762 0-2.24988l-21.108423-9.100638c-.985902-.429752-1.997084-.783666-3.008266-1.08702-1.011182-.303355-2.502675-1.617891-2.755471-3.109385-.252795-1.491493-.303355-1.365095-.50559-2.047643zM4650.19618 179.705729l-.180069-.62503c-.000947-.02701-.040752-.02701-.042174 0l-.177226.624082c-.00379.012795-.007108.026063-.009477.039331-.004739.027484-.024167.049756-.050704.057812-.026536.008056-.03933.012794-.058285.02085l-.387623.167749c-.026536.001421-.026536.040278 0 .042174l.387623.168222c.018954.008056.038383.01469.058285.02085.019903.00616.045965.030802.050704.058286.004739.027484.005686.026063.009477.038857l.17533.6165c.000949.02701.040753.02701.042175 0l.181965-.6165c.00379-.013268.007582-.026536.00995-.039805.005213-.027484.02559-.049756.052126-.057338.018955-.005212.03791-.011846.055916-.019902l.395205-.1668c.026536-.001422.026536-.04028 0-.042175l-.395678-.170592c-.018481-.008056-.037436-.01469-.05639-.020376-.018955-.005687-.046913-.030328-.051652-.058286-.004739-.027958-.005686-.025588-.009477-.038383zM5114.451458 278.322813l-13.264623-46.042205c-.069814-1.989694-3.001994-1.989694-3.106715 0l-13.055181 45.972391c-.279256.942487-.523604 1.91988-.698139 2.897273-.349069 2.0246-1.780252 3.665225-3.735038 4.258642-1.954787.593418-2.897273.942487-4.29355 1.535904l-28.553846 12.357044c-1.954787.10472-1.954787 2.967087 0 3.106714l28.553847 12.391951c1.396276.593417 2.827459 1.082114 4.293549 1.535904 1.46609.45379 3.38597 2.268948 3.735038 4.293549.34907 2.0246.418883 1.91988.698139 2.862366l12.915554 45.413881c.069814 1.989693 3.001993 1.989693 3.106714 0l13.40425-45.413881c.279256-.977393.558511-1.954787.733046-2.93218.383976-2.0246 1.884973-3.665225 3.83976-4.223735 1.396275-.383976 2.792552-.872673 4.119014-1.46609l29.112357-12.28723c1.954787-.10472 1.954787-2.967087 0-3.106715l-29.147264-12.566485c-1.36137-.593417-2.757645-1.082114-4.153922-1.500997-1.396276-.418882-3.455783-2.234041-3.804852-4.293549-.349069-2.059507-.418883-1.884972-.698138-2.827459zM5250.469436 179.295845l-.430883-1.49562c-.002268-.064632-.097516-.064632-.100918 0l-.42408 1.493353c-.009071.030615-.017008.062364-.022678.094114-.011339.065766-.05783.11906-.121328.138336-.063498.019276-.094114.030615-.13947.049892l-.927534.401402c-.063498.003402-.063498.096382 0 .100917l.927534.402536c.045356.019277.091846.035151.13947.049892.047624.01474.109989.073704.121328.13947.01134.065767.013607.062365.022678.09298l.419545 1.47521c.002267.064632.097515.064632.100917 0l.43542-1.47521c.00907-.031749.018142-.063498.023811-.095247.012473-.065767.061231-.11906.12473-.137203.045356-.012473.090712-.028347.1338-.047624l.945677-.399134c.063498-.003402.063498-.096382 0-.100918l-.94681-.408205c-.044223-.019276-.089579-.035151-.134935-.048758-.045356-.013607-.112257-.07257-.123596-.13947-.011339-.0669-.013606-.061231-.022678-.091846zM5718.565554 272.151669l-17.040847-59.149676c-.089688-2.556127-3.856612-2.556127-3.991145 0l-16.771781 59.059987c-.358755 1.210797-.672665 2.466439-.896887 3.72208-.448443 2.600971-2.28706 4.708655-4.798343 5.471009-2.511283.762353-3.72208 1.210797-5.515853 1.97315l-36.682665 15.874894c-2.511283.134533-2.511283 3.811769 0 3.991146l36.682665 15.919738c1.793773.762354 3.63239 1.390175 5.515853 1.973151 1.883462.582976 4.3499 2.914882 4.798343 5.515853.448444 2.600971.538132 2.466438.896887 3.677235l16.592403 58.342478c.089689 2.556127 3.856613 2.556127 3.991146 0l17.220224-58.342478c.358755-1.255641.71751-2.511282.941731-3.766924.493288-2.600971 2.421594-4.708655 4.932877-5.426164 1.793773-.493288 3.587546-1.121108 5.291631-1.883462l37.400174-15.785205c2.511283-.134533 2.511283-3.811769 0-3.991146l-37.445018-16.14396c-1.74893-.762354-3.542703-1.390174-5.336476-1.928306-1.793773-.538132-4.439589-2.870038-4.888032-5.515853-.448444-2.645816-.538132-2.421594-.896887-3.632391zM5850.915705 178.626442l-.840502-2.917429c-.004424-.126075-.19022-.126075-.196855 0l-.827231 2.913005c-.017695.05972-.033178.121652-.044237.183584-.022119.128287-.112804.232244-.236668.269845-.123863.037602-.183583.05972-.272057.097322l-1.809293.782994c-.123863.006636-.123863.188007 0 .196855l1.809293.785206c.088474.037601.17916.068567.272057.097321.092898.028754.21455.14377.236668.272058.022118.128287.026542.121651.044237.181371l.818384 2.877616c.004424.126075.190219.126075.196854 0l.84935-2.877616c.017695-.061932.03539-.123863.04645-.185795.02433-.128287.11944-.232244.243303-.267634.088474-.02433.176948-.055296.260998-.092897l1.844682-.778571c.123863-.006636.123863-.188007 0-.196855l-1.846894-.796265c-.086262-.037602-.174736-.068568-.26321-.09511-.088474-.026542-.218973-.141558-.241092-.272057-.022118-.1305-.026542-.11944-.044237-.17916zM6322.373824 266.439264l-20.53636-71.282788c-.108086-3.080454-4.647703-3.080454-4.809832 0l-20.212102 71.174702c-.432344 1.459162-.810646 2.972368-1.080861 4.485573-.54043 3.134497-2.756196 5.67452-5.782607 6.593253-3.02641.918731-4.485573 1.459162-6.647295 2.377894l-44.207218 19.13124c-3.026411.16213-3.026411 4.59366 0 4.809833l44.207218 19.185284c2.161722.918732 4.377487 1.675334 6.647295 2.377894 2.269808.70256 5.242176 3.512799 5.782607 6.647296.54043 3.134497.648517 2.972368 1.080861 4.43153l19.99593 70.310013c.108086 3.080454 4.647702 3.080454 4.809832 0l20.752532-70.310013c.432345-1.513205.86469-3.02641 1.134904-4.539616.594474-3.134498 2.918325-5.674521 5.944736-6.53921 2.161722-.594473 4.323445-1.351076 6.37708-2.269808l45.071907-19.023155c3.026411-.16213 3.026411-4.59366 0-4.809832l-45.12595-19.4555c-2.107679-.918731-4.2694-1.675334-6.431123-2.32385-2.161722-.648517-5.350262-3.458756-5.890693-6.647296-.54043-3.18854-.648516-2.918325-1.08086-4.377487zM6451.582142 177.626786l-1.452208-5.04069c-.007643-.217831-.328657-.217831-.340122 0l-1.429278 5.033047c-.030573.103183-.057324.210188-.076432.317193-.038216.221653-.194902.401268-.408912.466235s-.317192.103183-.470056.16815l-3.126069 1.352847c-.21401.011465-.21401.324836 0 .340122l3.126069 1.356668c.152864.064968.30955.11847.470056.16815.160508.049682.370696.248405.408912.470058.038216.221652.045859.210188.076432.31337l1.413992 4.971902c.007643.217831.328657.217831.340122 0l1.467494-4.971901c.030573-.107005.061146-.21401.080254-.321015.042038-.221652.206366-.401268.420376-.462413.152864-.042038.305728-.09554.450949-.160507l3.187214-1.345204c.21401-.011464.21401-.324836 0-.340122l-3.191036-1.375776c-.149042-.064967-.301906-.11847-.45477-.164329s-.378339-.244582-.416555-.470057c-.038216-.225474-.045859-.206366-.076432-.30955zM6925.680685 261.478972l-23.571643-81.818415c-.124061-3.535747-5.334635-3.535747-5.520727 0l-23.19946 81.694354c-.496245 1.674827-.93046 3.411685-1.240613 5.148543-.620306 3.597777-3.163562 6.513217-6.637278 7.567738-3.473716 1.054521-5.148544 1.674827-7.62977 2.729348l-50.741063 21.958847c-3.473716.186092-3.473716 5.272605 0 5.520727l50.741064 22.020878c2.481225 1.05452 5.024482 1.92295 7.629769 2.729348 2.605287.806398 6.016972 4.031992 6.637278 7.629769.620307 3.597777.744368 3.411685 1.240613 5.086512l22.951337 80.701864c.124061 3.535747 5.334635 3.535747 5.520727 0l23.819766-80.701864c.496245-1.736858.99249-3.473716 1.302644-5.210574.682337-3.597777 3.349654-6.513217 6.82337-7.505707 2.481226-.682337 4.962452-1.550766 7.319616-2.605287l51.733554-21.834786c3.473716-.186091 3.473716-5.272604 0-5.520727l-51.795585-22.33103c-2.419195-1.054521-4.90042-1.92295-7.381646-2.667318-2.481226-.744368-6.141033-3.96996-6.76134-7.629769-.620306-3.659808-.744368-3.349654-1.240613-5.024482zM7052.470931 176.293603l-2.268004-7.872364c-.011937-.3402-.513286-.3402-.53119 0l-2.232195 7.860427c-.047747.161148-.089526.328264-.119369.49538-.059684.34617-.30439.626685-.638622.728149-.334232.101463-.49538.161148-.734117.26261l-4.882179 2.112826c-.334232.017906-.334232.507317 0 .53119l4.882179 2.118795c.238737.101463.483443.185021.734117.26261.250674.07759.578938.387949.638622.734118.059685.34617.071622.328264.11937.489412l2.20832 7.764932c.011936.3402.513285.3402.53119 0l2.291878-7.764932c.047748-.167116.095495-.334233.125338-.501349.065652-.346169.322295-.626685.656527-.72218.238738-.065653.477475-.149211.704275-.250674l4.977674-2.100889c.334232-.017905.334232-.507317 0-.53119l-4.983642-2.148637c-.232769-.101463-.471506-.185021-.710244-.256642-.238737-.071621-.590875-.38198-.650559-.734117-.059684-.352138-.071621-.322296-.119369-.483444zM7528.475258 257.287112l-26.13671-90.721898c-.137562-3.920507-5.91515-3.920507-6.121493 0l-25.724026 90.584337c-.550246 1.857082-1.031712 3.782945-1.375616 5.708807-.687808 3.989288-3.507822 7.221986-7.359548 8.39126-3.851725 1.169274-5.708807 1.857082-8.46004 3.026356l-56.262709 24.34841c-3.851726.206342-3.851726 5.84637 0 6.121492l56.262709 24.41719c2.751233 1.169275 5.571246 2.132206 8.46004 3.026357 2.888795.89415 6.67174 4.470753 7.359548 8.46004.687808 3.989288.82537 3.782945 1.375616 5.640027l25.448903 89.483844c.137561 3.920507 5.91515 3.920507 6.121493 0l26.411833-89.483844c.550247-1.925863 1.100494-3.851726 1.444398-5.777588.756589-3.989288 3.714164-7.221986 7.56589-8.32248 2.751232-.756588 5.502465-1.71952 8.116136-2.888794l57.363202-24.210847c3.851726-.206343 3.851726-5.84637 0-6.121493l-57.431983-24.761095c-2.682452-1.169273-5.433684-2.132205-8.184917-2.957575-2.751233-.82537-6.809301-4.401972-7.49711-8.46004-.687807-4.058069-.825369-3.714164-1.375616-5.571247zM7653.47124 174.79314l-3.186162-11.059337c-.01677-.477925-.72108-.477925-.746233 0l-3.135855 11.042568c-.067077.226385-.12577.461155-.167692.695925-.083847.486309-.427617.880387-.897157 1.022925-.46954.14254-.695925.226386-1.03131.368924l-6.858634 2.968162c-.46954.025154-.46954.712694 0 .746233l6.858634 2.976546c.335385.14254.679156.259924 1.03131.368925.352155.109.81331.545001.897157 1.03131.083846.486309.100615.461155.167692.68754l3.102316 10.908414c.01677.477925.72108.477925.746233 0l3.219701-10.908414c.067077-.23477.134154-.46954.176077-.70431.092231-.486308.45277-.880386.92231-1.01454.335386-.092231.670772-.209616.989388-.352155l6.992788-2.951393c.46954-.025154.46954-.712694 0-.746233l-7.001173-3.01847c-.327-.142538-.662386-.259923-.997772-.360539-.335385-.100615-.830079-.536616-.913925-1.03131-.083847-.494694-.100616-.45277-.167693-.679156zM8130.818243 253.772635l-28.287276-98.186625c-.14888-4.243091-6.401857-4.243091-6.625178 0l-27.840635 98.037745c-.595522 2.009885-1.116603 4.09421-1.488804 6.178536-.744402 4.317532-3.79645 7.816222-7.965102 9.081705-4.168651 1.265483-6.178536 2.009885-9.156144 3.275369l-60.892085 26.351831c-4.168651.22332-4.168651 6.327417 0 6.625178l60.892085 26.426271c2.977608 1.265484 6.029656 2.307646 9.156144 3.27537 3.126489.967722 7.2207 4.838612 7.965102 9.156144.744402 4.317531.893282 4.09421 1.488804 6.104096l27.542874 96.846702c.14888 4.243091 6.401857 4.243091 6.625178 0l28.585037-96.846702c.595522-2.084325 1.191043-4.168651 1.563244-6.252977.818843-4.317531 4.019771-7.81622 8.188423-9.007264 2.977608-.818842 5.955216-1.861005 8.783943-3.126488l62.083128-26.202951c4.168651-.22332 4.168651-6.327417 0-6.625178l-62.157568-26.798472c-2.903168-1.265484-5.880776-2.307647-8.858384-3.200929-2.977608-.893282-7.36958-4.764173-8.113982-9.156145s-.893282-4.01977-1.488804-6.029656zM8254.415864 173.376204l-4.053209-14.0689c-.021332-.607981-.917305-.607981-.949304 0l-3.98921 14.047567c-.08533.287991-.159995.586649-.213327.885306-.106663.618648-.543983 1.119966-1.141298 1.301294-.597315.181327-.885306.28799-1.31196.469319l-8.725064 3.775883c-.597315.032-.597315.906639 0 .949304l8.725064 3.78655c.426654.181328.863974.330657 1.31196.46932.447986.138662 1.034635.693311 1.141298 1.311959.106664.618647.127996.586648.213327.87464l3.946545 13.876906c.021333.60798.917305.60798.949304 0l4.095874-13.876906c.08533-.298658.170661-.597315.223993-.895973.11733-.618647.575982-1.119965 1.173297-1.290627.426654-.11733.853307-.266658 1.258628-.447986l8.895726-3.754551c.597315-.031999.597315-.906639 0-.949304l-8.906392-3.839882c-.415987-.181328-.84264-.330656-1.269294-.458652s-1.055968-.682646-1.162631-1.31196c-.106664-.629314-.127996-.575982-.213327-.863973zM8732.782017 250.826974l-30.089774-104.44319c-.158367-4.513466-6.809791-4.513466-7.047342 0l-29.614673 104.284823c-.633468 2.137957-1.187754 4.355099-1.583672 6.57224-.791836 4.59265-4.038364 8.31428-8.472647 9.660401-4.434282 1.346122-6.57224 2.137958-9.739585 3.48408l-64.772198 28.031c-4.434283.23755-4.434283 6.730607 0 7.047342l64.772198 28.110183c3.167345 1.346122 6.413873 2.454693 9.739585 3.48408 3.325712 1.029387 7.680811 5.146935 8.472647 9.739584.791836 4.59265.950204 4.3551 1.583672 6.493057l29.297939 103.017885c.158367 4.513466 6.80979 4.513466 7.047341 0l30.40651-103.017885c.633468-2.217141 1.266937-4.434283 1.662855-6.651424.87102-4.59265 4.275916-8.31428 8.710198-9.581217 3.167345-.87102 6.33469-1.97959 9.343667-3.325712l66.039136-27.872633c4.434283-.237551 4.434283-6.730608 0-7.047342l-66.11832-28.506102c-3.08816-1.346122-6.255505-2.454692-9.42285-3.404896-3.167345-.950203-7.839178-5.067751-8.631014-9.739585-.791837-4.671833-.950204-4.275915-1.583673-6.413873zM8855.216735 172.174897l-4.788307-16.620468c-.025202-.718246-1.08367-.718246-1.121473 0l-4.712702 16.595267c-.100807.340221-.189013.693044-.252017 1.045867-.126008.730847-.64264 1.323085-1.348286 1.537299-.705646.214213-1.045867.340221-1.5499.554435l-10.307462 4.460687c-.705645.037802-.705645 1.071069 0 1.121472l10.307462 4.473287c.504033.214214 1.020666.390625 1.5499.554436.529234.16381 1.222278.819053 1.348286 1.5499.126009.730846.15121.693044.252017 1.033266l4.6623 16.393653c.0252.718246 1.083669.718246 1.121471 0l4.838711-16.393653c.100807-.352823.201613-.705645.264617-1.058468.13861-.730847.680444-1.323085 1.38609-1.524698.504032-.138609 1.008064-.31502 1.486895-.529234l10.509075-4.435485c.705645-.037803.705645-1.071069 0-1.121472l-10.521676-4.536292c-.491432-.214213-.995464-.390625-1.499496-.541834-.504033-.15121-1.24748-.806452-1.373489-1.5499-.126008-.743448-.15121-.680444-.252016-1.020666zM9334.430833 248.353751l-31.60318-109.6963c-.166333-4.740477-7.152299-4.740477-7.401797 0l-31.104183 109.529968c-.66533 2.245489-1.247493 4.574144-1.663325 6.9028-.831662 4.823643-4.24148 8.732457-8.89879 10.146283-4.65731 1.413827-6.9028 2.24549-10.22945 3.659316l-68.030003 29.440857c-4.65731.249499-4.65731 7.069132 0 7.401797l68.030003 29.524023c3.32665 1.413827 6.736467 2.578154 10.22945 3.659316 3.492983 1.081161 8.067128 5.405807 8.89879 10.22945.831663 4.823643.997995 4.574144 1.663325 6.819634l30.771518 108.199307c.166332 4.740477 7.152298 4.740477 7.401797 0l31.935845-108.199307c.66533-2.328656 1.33066-4.657311 1.746491-6.985966.914829-4.823644 4.490978-8.732458 9.148289-10.063118 3.32665-.91483 6.653301-2.079157 9.813619-3.492983l69.360663-29.274525c4.65731-.249498 4.65731-7.069132 0-7.401797l-69.44383-29.939854c-3.243484-1.413827-6.570134-2.578155-9.896785-3.57615-3.32665-.997995-8.23346-5.32264-9.065122-10.22945-.831663-4.90681-.997995-4.490978-1.663325-6.736467zM9455.868508 171.197238l-5.386553-18.69701c-.02835-.807984-1.219062-.807984-1.261588 0l-5.301502 18.66866c-.113401.382728-.212627.779632-.283503 1.176536-.141752.822158-.722932 1.48839-1.51674 1.729367-.793808.240978-1.176537.382729-1.743542.623706l-11.595265 5.018c-.793808.042526-.793808 1.204887 0 1.261588l11.595265 5.032175c.567005.240977 1.148186.439429 1.743542.623706.595356.184277 1.374988.921384 1.51674 1.743542.141751.822158.170102.779633.283503 1.162362l5.244802 18.441858c.02835.807983 1.219062.807983 1.261587 0l5.443254-18.441858c.113401-.396904.226802-.793808.297678-1.190712.155927-.822158.765458-1.48839 1.559266-1.715192.567005-.155927 1.13401-.354379 1.672666-.595356l11.822067-4.98965c.793808-.042525.793808-1.204887 0-1.261587l-11.836242-5.10305c-.55283-.240978-1.119836-.43943-1.686842-.609532-.567005-.170101-1.403339-.907209-1.54509-1.743542-.141751-.836333-.170102-.765458-.283503-1.148186zM9935.817086 246.274371L9902.9415 132.161482c-.17303-4.931338-7.440264-4.931338-7.699808 0l-32.356498 113.93986c-.692118 2.335897-1.29772 4.758308-1.730294 7.18072-.865147 5.017853-4.41225 9.084044-9.257073 10.554793-4.844823 1.47075-7.18072 2.335897-10.641308 3.806647l-70.769025 30.626204c-4.844823.259544-4.844823 7.35375 0 7.699808l70.769025 30.712719c3.460588 1.47075 7.00769 2.681955 10.641308 3.806647 3.633617 1.12469 8.391926 5.623455 9.257073 10.641308.865147 5.017852 1.038176 4.758308 1.730294 7.094205l32.010439 112.555625c.17303 4.931338 7.440264 4.931338 7.699808 0l33.221645-112.555625c.692117-2.422412 1.384235-4.844823 1.816808-7.267235.951662-5.017852 4.671794-9.084043 9.516617-10.468278 3.460588-.951662 6.921176-2.162868 10.208735-3.633618l72.15326-30.453174c4.844823-.259544 4.844823-7.35375 0-7.699808l-72.239775-31.145292c-3.374073-1.47075-6.83466-2.681956-10.295249-3.720133-3.460588-1.038176-8.564955-5.53694-9.430102-10.641308-.865147-5.104367-1.038177-4.671793-1.730294-7.00769zM10056.394297 170.408554l-5.869161-20.37217c-.03089-.880373-1.328284-.880373-1.37462 0l-5.77649 20.34128c-.123562.41702-.231678.849484-.308904 1.281948-.154452.89582-.787703 1.621742-1.652632 1.88431-.86493.262568-1.281949.41702-1.899755.679587l-12.634143 5.467588c-.86493.046335-.86493 1.312839 0 1.37462l12.634143 5.483032c.617806.262568 1.251058.4788 1.899755.679587.648697.200787 1.49818 1.003936 1.652632 1.899755.154452.89582.185342.849484.308903 1.266503l5.71471 20.094157c.03089.880374 1.328284.880374 1.37462 0l5.930942-20.094157c.123562-.432464.247123-.864929.324349-1.297393.169896-.89582.834038-1.621742 1.698968-1.868865.617806-.169897 1.235613-.38613 1.822529-.648697l12.881265-5.436697c.86493-.046335.86493-1.312839 0-1.37462l-12.89671-5.560258c-.602362-.262568-1.220168-.4788-1.837975-.664142-.617806-.185342-1.52907-.98849-1.683523-1.899755-.154451-.911264-.185341-.834039-.308903-1.251058zM10536.982447 244.52633l-33.945241-117.82572c-.17866-5.091787-7.682344-5.091787-7.950333 0l-33.409264 117.64706c-.714637 2.411899-1.339944 4.913127-1.786592 7.414355-.893295 5.181116-4.555808 9.379606-9.558265 10.89821-5.002457 1.518602-7.414355 2.411898-10.987539 3.930501l-73.071598 31.622672c-5.002457.26799-5.002457 7.593015 0 7.950333l73.071598 31.712002c3.573184 1.518603 7.235696 2.769217 10.987539 3.930502 3.751842 1.161284 8.66497 5.806423 9.558265 10.987538.893296 5.181116 1.071955 4.913127 1.786592 7.325026l33.051946 116.217787c.178659 5.091787 7.682344 5.091787 7.950332 0l34.30256-116.217787c.714637-2.501228 1.429274-5.002456 1.875922-7.503685.982625-5.181116 4.823797-9.379606 9.826254-10.80888 3.573183-.982625 7.146366-2.233239 10.54089-3.751842l74.500872-31.444013c5.002457-.267989 5.002457-7.593014 0-7.950333l-74.590201-32.15865c-3.483854-1.518602-7.057037-2.769217-10.63022-3.841172-3.573184-1.071955-8.84363-5.717093-9.736925-10.987538-.893296-5.270446-1.071955-4.823798-1.786592-7.235696zM10656.818986 169.77152l-6.258973-21.725224c-.032942-.938845-1.416504-.938845-1.465917 0l-6.160147 21.692283c-.131768.444716-.247065.905904-.32942 1.367091-.16471.955317-.84002 1.729453-1.762395 2.00946-.922374.280007-1.367091.444716-2.02593.724723l-13.473263 5.830727c-.922375.049413-.922375 1.400034 0 1.465918l13.473263 5.847198c.658839.280007 1.33415.5106 2.02593.724723.691782.214123 1.597686 1.070614 1.762395 2.02593.16471.955318.197652.905905.32942 1.350621l6.094263 21.428747c.032942.938846 1.416504.938846 1.465917 0l6.324857-21.428747c.131768-.461187.263536-.922375.34589-1.383562.181182-.955317.889434-1.729453 1.811809-1.992989.658839-.18118 1.317678-.411774 1.943576-.691781l13.736798-5.797785c.922375-.049413.922375-1.400034 0-1.465918l-13.75327-5.929553c-.642368-.280007-1.301207-.5106-1.960046-.708252-.65884-.197652-1.630627-1.054143-1.795337-2.02593-.16471-.971789-.197652-.889434-.32942-1.33415zM11137.959965 243.060052l-34.84248-120.940082c-.183381-5.226372-7.885403-5.226372-8.160476 0l-34.292335 120.7567c-.733526 2.47565-1.375361 5.042991-1.833815 7.610332-.916907 5.318063-4.676228 9.627527-9.810909 11.18627-5.134681 1.558742-7.610331 2.47565-11.27796 4.034392l-75.003024 32.458521c-5.13468.275072-5.13468 7.793713 0 8.160476l75.003023 32.550212c3.66763 1.558742 7.42695 2.842412 11.277961 4.034392 3.851011 1.19198 8.894002 5.959898 9.810909 11.27796.916907 5.318063 1.100289 5.042991 1.833815 7.518641l33.925573 119.28965c.183381 5.226371 7.885403 5.226371 8.160475 0l35.209243-119.28965c.733526-2.56734 1.467052-5.134681 1.925506-7.702022 1.008598-5.318063 4.9513-9.627527 10.08598-11.094579 3.66763-1.008598 7.33526-2.292268 10.819508-3.85101l76.470075-32.27514c5.13468-.275073 5.13468-7.793713 0-8.160476l-76.561766-33.008665c-3.575939-1.558743-7.243568-2.842413-10.911198-3.942702-3.66763-1.100289-9.077383-5.868207-9.99429-11.27796-.916907-5.409754-1.100289-4.9513-1.833815-7.42695zM11257.162813 169.25578l-6.574563-22.820653c-.034603-.986185-1.487927-.986185-1.539831 0l-6.470754 22.78605c-.138412.46714-.259523.951582-.34603 1.436023-.173015 1.003486-.882376 1.816656-1.851258 2.11078-.968883.294126-1.436023.46714-2.128083.761266l-14.152611 6.124724c-.968883.051905-.968883 1.470626 0 1.539832l14.152611 6.142026c.69206.294125 1.40142.536346 2.128083.761265.726662.22492 1.678243 1.124596 1.851258 2.128082.173015 1.003486.207618.951582.34603 1.418722l6.401548 22.509227c.034603.986184 1.487927.986184 1.539831 0l6.64377-22.509227c.138411-.484442.276823-.968883.36333-1.453325.190317-1.003486.93428-1.816655 1.903163-2.093479.69206-.190316 1.384119-.432537 2.041575-.726662l14.429435-6.090121c.968883-.051905.968883-1.470626 0-1.539832l-14.446737-6.228533c-.674757-.294126-1.366817-.536346-2.058876-.743964-.692059-.207618-1.712846-1.107295-1.885861-2.128082-.173015-1.020788-.207618-.93428-.34603-1.40142zM11738.776013 241.83598l-35.59151-123.540004c-.187323-5.338727-8.05492-5.338727-8.335906 0l-35.029538 123.35268c-.749295 2.52887-1.404928 5.151403-1.873238 7.773935-.936618 5.432389-4.776755 9.834496-10.02182 11.426748-5.245064 1.592252-7.773935 2.52887-11.52041 4.121122l-76.615408 33.156302c-5.245064.280985-5.245064 7.961258 0 8.335906l76.615409 33.249963c3.746474 1.592252 7.58661 2.903518 11.52041 4.121122 3.933798 1.217605 9.0852 6.088022 10.02182 11.52041.936618 5.432388 1.123942 5.151403 1.873237 7.680273l34.65489 121.85409c.187325 5.338727 8.054921 5.338727 8.335907 0l35.966157-121.85409c.749295-2.622532 1.49859-5.245064 1.9669-7.867597 1.03028-5.432388 5.05774-9.834496 10.302805-11.333086 3.746475-1.03028 7.49295-2.341546 11.0521-3.933798l78.113999-32.968978c5.245064-.280985 5.245064-7.961259 0-8.335906l-78.20766-33.718273c-3.652813-1.592251-7.399288-2.903517-11.145763-4.02746-3.746474-1.123942-9.272525-5.99436-10.209143-11.52041-.936619-5.52605-1.123943-5.05774-1.873238-7.586611zM11857.441196 168.838206l-6.830083-23.70758c-.035948-1.024512-1.545756-1.024512-1.599678 0l-6.72224 23.671632c-.143791.485295-.269608.988565-.359478 1.491834-.179739 1.042486-.916669 1.88726-1.923208 2.192816-1.006538.305557-1.491834.485296-2.21079.790852l-14.702653 6.362762c-1.006539.053922-1.006539 1.527782 0 1.599677l14.702653 6.380736c.718956.305557 1.455887.557191 2.21079.790852.754904.23366 1.74347 1.168304 1.923208 2.21079.17974 1.042487.215687.988565.359478 1.47386l6.650345 23.38405c.035947 1.024512 1.545755 1.024512 1.599677 0l6.90198-23.38405c.14379-.503269.287582-1.006538.377451-1.509808.197713-1.042486.970591-1.88726 1.97713-2.174842.718956-.197713 1.437912-.449348 2.12092-.754904l14.990236-6.326814c1.006539-.053922 1.006539-1.527782 0-1.599678l-15.00821-6.470605c-.700982-.305556-1.419938-.55719-2.138894-.772878-.718956-.215687-1.779417-1.15033-1.959156-2.21079-.179739-1.06046-.215687-.97059-.359478-1.455886zM12339.451846 240.82223l-36.21184-125.6932c-.190588-5.431776-8.19531-5.431776-8.481193 0l-35.640074 125.502612c-.762354 2.572947-1.429415 5.241187-1.905886 7.909428-.952943 5.52707-4.86001 10.005903-10.196492 11.625907-5.336481 1.620003-7.909428 2.572946-11.7212 4.19295l-77.95075 33.734187c-5.336481.285883-5.336481 8.100016 0 8.481194l77.95075 33.829481c3.811772 1.620004 7.718839 2.954124 11.7212 4.19295 4.002361 1.238826 9.243549 6.19413 10.196492 11.7212.952943 5.527071 1.143532 5.241188 1.905886 7.814135l35.258896 123.977903c.19059 5.431776 8.195311 5.431776 8.481194 0l36.593017-123.977903c.762355-2.668241 1.52471-5.336482 2.00118-8.004723 1.048238-5.52707 5.145894-10.005903 10.482375-11.530612 3.811773-1.048237 7.623546-2.382358 11.24473-4.002361l79.475458-33.543599c5.336481-.285883 5.336481-8.100016 0-8.481194l-79.570753-34.305953c-3.716478-1.620003-7.52825-2.954124-11.340023-4.097655-3.811773-1.143532-9.434137-6.098837-10.38708-11.721201-.952944-5.622365-1.143532-5.145893-1.905887-7.71884zM12457.665775 168.501338l-7.036219-24.423084c-.037032-1.055432-1.592407-1.055432-1.647956 0l-6.92512 24.386051c-.14813.499942-.277745 1.0184-.370327 1.536859-.185164 1.073949-.944335 1.944218-1.981251 2.258996-1.036917.314778-1.536858.499942-2.277513.81472l-15.146385 6.554793c-1.036917.055549-1.036917 1.57389 0 1.647956l15.146385 6.57331c.740655.314777 1.499826.574006 2.277513.81472.777687.240712 1.796087 1.203563 1.98125 2.277512.185164 1.073949.222197 1.0184.370328 1.518342l6.851055 24.089789c.037032 1.055433 1.592407 1.055433 1.647956 0l7.110284-24.08979c.14813-.518457.296261-1.036916.388843-1.555374.20368-1.073949.999884-1.944218 2.0368-2.24048.740655-.20368 1.48131-.462909 2.184931-.777687l15.442647-6.51776c1.036917-.05555 1.036917-1.573891 0-1.647956l-15.461163-6.665891c-.722138-.314779-1.462793-.574008-2.203448-.796204-.740654-.222196-1.83312-1.185047-2.018283-2.277513-.185164-1.092465-.222197-.999883-.370327-1.499825zM12940.00478 239.99283l-36.719363-127.454845c-.19326-5.507904-8.310172-5.507904-8.600062 0l-36.139584 127.261584c-.77304 2.609008-1.449449 5.314645-1.932598 8.020283-.9663 5.604534-4.928125 10.14614-10.3394 11.788848-5.411275 1.642708-8.020282 2.609007-11.885478 4.251716l-79.043262 34.206986c-5.411275.28989-5.411275 8.213542 0 8.600061l79.043262 34.303617c3.865196 1.642708 7.827022 2.995527 11.885478 4.251715 4.058456 1.25619 9.3731 6.280944 10.3394 11.885479.966299 5.604534 1.159559 5.314644 1.932598 7.923652l35.753065 125.715506c.19326 5.507904 8.310171 5.507904 8.600061 0l37.105883-125.715506c.77304-2.705638 1.546079-5.411275 2.029228-8.116912 1.06293-5.604535 5.218015-10.14614 10.62929-11.692219 3.865196-1.062929 7.730392-2.415747 11.402329-4.058456l80.58934-34.013726c5.411275-.28989 5.411275-8.213542 0-8.600062l-80.68597-34.786765c-3.768566-1.642709-7.633763-2.995527-11.498959-4.155086-3.865196-1.159559-9.56636-6.184314-10.53266-11.885478-.966298-5.701165-1.159558-5.218015-1.932598-7.827023zM13057.845416 168.231877l-7.201107-24.995419c-.0379-1.080166-1.629724-1.080166-1.686574 0l-7.087405 24.957518c-.151602.511658-.284254 1.042265-.379005 1.572873-.189503 1.099116-.966465 1.98978-2.02768 2.311934-1.061216.322155-1.572873.511658-2.330885.833813l-15.501328 6.708398c-1.061216.056851-1.061216 1.610774 0 1.686575l15.501328 6.72735c.758012.322154 1.534973.587458 2.330885.833812.795911.246353 1.838177 1.231768 2.02768 2.330884.189502 1.099116.227403 1.042265.379005 1.553923l7.011604 24.654313c.0379 1.080166 1.629724 1.080166 1.686574 0l7.276908-24.654313c.151602-.530608.303204-1.061216.397955-1.591824.208454-1.099116 1.023316-1.989779 2.084531-2.292983.758011-.208453 1.516023-.473757 2.236133-.795912l15.804533-6.670498c1.061216-.056851 1.061216-1.610774 0-1.686575l-15.823483-6.8221c-.739061-.322155-1.497072-.58746-2.255083-.814863-.758012-.227403-1.876078-1.212818-2.06558-2.330884-.189504-1.118067-.227404-1.023315-.379006-1.534973zM13540.44908 239.326379l-37.127175-128.870381c-.195406-5.569076-8.402466-5.569076-8.695575 0l-36.540957 128.674975c-.781625 2.637983-1.465547 5.37367-1.954062 8.109356-.977031 5.66678-4.982858 10.258825-10.454231 11.919778-5.471373 1.660952-8.109357 2.637983-12.01748 4.298936l-79.921132 34.586895c-5.471373.29311-5.471373 8.304763 0 8.695575l79.921131 34.684599c3.908124 1.660952 7.91395 3.028796 12.01748 4.298936 4.10353 1.27014 9.4772 6.350701 10.454232 12.01748.97703 5.66678 1.172437 5.37367 1.954062 8.011654l36.150144 127.111725c.195407 5.569077 8.402467 5.569077 8.695576 0l37.517988-127.111725c.781625-2.735686 1.56325-5.471373 2.051765-8.20706 1.074734-5.66678 5.275967-10.258825 10.74734-11.822074 3.908124-1.074734 7.816248-2.442577 11.528965-4.10353l81.48438-34.39149c5.471374-.293108 5.471374-8.304762 0-8.695574l-81.582083-35.173114c-3.81042-1.660953-7.718544-3.028796-11.626668-4.201233-3.908124-1.172437-9.672606-6.252998-10.649637-12.01748-.977031-5.764483-1.172437-5.275968-1.954062-7.913951zM13657.986977 168.019535l-7.331042-25.44643c-.038584-1.099656-1.65913-1.099656-1.717007 0l-7.215288 25.407846c-.154338.52089-.289383 1.061071-.385844 1.601253-.192922 1.118949-.983903 2.025683-2.064267 2.35365-1.080364.327968-1.601254.52089-2.372942.848858l-15.781031 6.829444c-1.080364.057876-1.080364 1.639838 0 1.717007l15.78103 6.848736c.77169.327967 1.56267.598058 2.372943.848857.810273.250799 1.871345 1.253994 2.064267 2.372942.192922 1.118949.231506 1.061072.385844 1.581962l7.13812 25.09917c.038584 1.099657 1.65913 1.099657 1.717006 0l7.40821-25.09917c.154338-.540182.308676-1.080364.405137-1.620546.212214-1.118948 1.04178-2.025682 2.122144-2.334358.771688-.212214 1.543377-.482305 2.27648-.810273l16.089707-6.79086c1.080364-.057876 1.080364-1.639837 0-1.717006l-16.108998-6.945197c-.752397-.327968-1.524085-.598059-2.295774-.829565-.771688-.231507-1.909929-1.234702-2.102851-2.372943-.192922-1.13824-.231507-1.04178-.385844-1.56267zM14140.796622 238.805068l-37.446175-129.977643c-.197085-5.616926-8.47466-5.616926-8.770288 0l-36.85492 129.780557c-.78834 2.66065-1.478138 5.419841-1.97085 8.179033-.985426 5.715469-5.025671 10.34697-10.544055 12.022193-5.518383 1.675224-8.179033 2.66065-12.120735 4.335873l-80.607818 34.884068c-5.518383.295627-5.518383 8.376118 0 8.770288l80.607818 34.98261c3.941702 1.675224 7.981948 3.05482 12.120735 4.335873 4.138788 1.281053 9.558629 6.405267 10.544055 12.120736.985425 5.715468 1.18251 5.41984 1.97085 8.08049l36.46075 128.203876c.197085 5.616926 8.47466 5.616926 8.770288 0l37.840345-128.203876c.78834-2.759192 1.57668-5.518384 2.069393-8.277576 1.083969-5.715468 5.321299-10.346969 10.839683-11.92365 3.941702-1.083968 7.883405-2.463564 11.628022-4.138788l82.184499-34.686982c5.518383-.295628 5.518383-8.376118 0-8.770288l-82.283041-35.475324c-3.84316-1.675223-7.784863-3.05482-11.726566-4.23733-3.941702-1.18251-9.755713-6.306724-10.74114-12.120735-.985425-5.814012-1.18251-5.321299-1.97085-7.981948zM14258.095847 167.85623l-7.43097-25.793292c-.039111-1.114646-1.681747-1.114646-1.740412 0l-7.31364 25.75418c-.156442.52799-.293328 1.075536-.391104 1.623081-.195552 1.134201-.997314 2.053295-2.092405 2.385733-1.09509.332438-1.62308.52799-2.405288.860428l-15.996142 6.922536c-1.09509.058666-1.09509 1.662191 0 1.740412l15.996142 6.942091c.782208.332438 1.58397.60621 2.405288.860428.821318.254218 1.896853 1.271087 2.092405 2.405288.195552 1.134201.234662 1.075536.391104 1.603526l7.235419 25.441297c.03911 1.114646 1.681746 1.114646 1.740412 0l7.509191-25.441297c.156442-.547546.312883-1.09509.41066-1.642636.215106-1.1342 1.05598-2.053295 2.15107-2.366178.782207-.215107 1.564415-.48888 2.307512-.821317l16.309025-6.883426c1.09509-.058666 1.09509-1.662191 0-1.740412l-16.32858-7.039867c-.762653-.332438-1.54486-.60621-2.327068-.840873-.782207-.234662-1.935963-1.251532-2.131515-2.405288-.195552-1.153756-.234662-1.05598-.391104-1.58397zM14741.057385 238.413922l-37.685522-130.808433c-.198345-5.652829-8.52883-5.652829-8.826347 0l-37.090488 130.610088c-.79338 2.677656-1.487586 5.454484-1.983448 8.231312-.991725 5.752-5.057794 10.413105-10.61145 12.099036-5.553656 1.685931-8.231312 2.677655-12.198209 4.363587l-81.123046 35.10704c-5.553656.297517-5.553656 8.429656 0 8.826346l81.123046 35.206212c3.966897 1.685931 8.032967 3.074345 12.198209 4.363587 4.165242 1.289241 9.619725 6.446207 10.61145 12.198208.991724 5.752001 1.190069 5.454484 1.983448 8.13214l36.693799 129.023329c.198345 5.652828 8.528829 5.652828 8.826346 0l38.082212-129.02333c.79338-2.776828 1.58676-5.553656 2.082621-8.330484 1.090897-5.752 5.355312-10.413105 10.908968-11.999863 3.966897-1.090897 7.933794-2.479311 11.702346-4.165242l82.709805-34.908695c5.553656-.297518 5.553656-8.429657 0-8.826346l-82.808977-35.702075c-3.867725-1.685931-7.834622-3.074345-11.80152-4.264414-3.966896-1.19007-9.81807-6.347036-10.809794-12.198209-.991724-5.851173-1.19007-5.355311-1.983449-8.032967zM14858.176331 167.735503l-7.504845-26.049712c-.039499-1.125727-1.698465-1.125727-1.757714 0l-7.386347 26.010213c-.157997.533239-.296244 1.086228-.394992 1.639216-.197496 1.145477-1.00723 2.073707-2.113206 2.40945-1.105977.335743-1.639216.53324-2.4292.868982l-16.155167 6.991356c-1.105977.059249-1.105977 1.678716 0 1.757714l16.155167 7.011105c.789984.335743 1.599717.612238 2.4292.868982.829483.256745 1.91571 1.283724 2.113206 2.4292.197496 1.145476.236995 1.086228.394992 1.619467l7.30735 25.69422c.039498 1.125726 1.698464 1.125726 1.757713 0l7.583843-25.69422c.157997-.552989.315994-1.105978.414742-1.658966.217245-1.145476 1.066478-2.073707 2.172455-2.3897.789984-.217246 1.579967-.49374 2.330452-.829484l16.47116-6.951856c1.105977-.059249 1.105977-1.678716 0-1.757714l-16.49091-7.109853c-.770234-.335743-1.560218-.612237-2.350201-.849233-.789984-.236995-1.95521-1.263973-2.152706-2.4292-.197496-1.165225-.236995-1.066477-.394992-1.599716zM15341.239841 238.140238l-37.852994-131.389736c-.199226-5.677949-8.56673-5.677949-8.86557 0l-37.255315 131.19051c-.796906 2.689555-1.494198 5.478723-1.992263 8.26789-.996132 5.777563-5.08027 10.45938-10.658607 12.152804-5.578336 1.693424-8.26789 2.689555-12.252416 4.382978l-81.483551 35.263053c-5.578336.29884-5.578336 8.467117 0 8.86557l81.48355 35.362666c3.984526 1.693423 8.068665 3.088007 12.252417 4.382978 4.183752 1.29497 9.662475 6.474854 10.658607 12.252417.996131 5.777562 1.195357 5.478723 1.992263 8.168277l36.856863 129.5967c.199226 5.677949 8.56673 5.677949 8.86557 0l38.251446-129.5967c.796905-2.789168 1.59381-5.578336 2.091876-8.367504 1.095745-5.777562 5.37911-10.45938 10.957446-12.05319 3.984526-1.095745 7.969051-2.490329 11.75435-4.183752l83.077362-35.063826c5.578336-.29884 5.578336-8.467118 0-8.86557l-83.176974-35.860732c-3.884913-1.693423-7.869439-3.088007-11.853964-4.283365-3.984526-1.195358-9.861701-6.375241-10.857833-12.252416-.996131-5.877176-1.195358-5.37911-1.992263-8.068665zM15458.231915 167.652127l-7.555864-26.226802c-.039768-1.13338-1.710011-1.13338-1.769663 0l-7.436561 26.187034c-.15907.536864-.298258 1.093612-.397677 1.65036-.198839 1.153264-1.014077 2.087805-2.127572 2.42583-1.113496.338026-1.65036.536864-2.445714.87489l-16.264992 7.038884c-1.113496.059651-1.113496 1.690127 0 1.769663l16.264992 7.058768c.795354.338025 1.610592.6164 2.445714.87489.835121.25849 1.928733 1.29245 2.127572 2.445713.198838 1.153264.238606 1.093612.397677 1.630476l7.357026 25.868894c.039767 1.13338 1.710011 1.13338 1.769663 0l7.6354-25.868894c.15907-.556748.31814-1.113495.41756-1.670243.218723-1.153264 1.073728-2.087805 2.187224-2.405947.795354-.218722 1.590708-.497096 2.346295-.835121l16.583133-6.999117c1.113496-.059651 1.113496-1.690127 0-1.769663l-16.603017-7.158187c-.77547-.338026-1.570824-.6164-2.366179-.855006-.795354-.238606-1.968501-1.272566-2.16734-2.445714-.198838-1.173147-.238606-1.073728-.397677-1.610592zM15941.351235 237.973147l-37.95524-131.744636c-.199764-5.693286-8.58987-5.693286-8.889517 0l-37.355946 131.544872c-.799058 2.69682-1.498234 5.493521-1.997645 8.290223-.998822 5.793168-5.093992 10.487632-10.687396 12.18563-5.593404 1.697998-8.290224 2.69682-12.285512 4.394817l-81.703648 35.358303c-5.593404.299646-5.593404 8.489988 0 8.889517l81.703648 35.458184c3.995288 1.697998 8.090459 3.096349 12.285512 4.394818 4.195053 1.298468 9.688574 6.492343 10.687396 12.285511.998823 5.793169 1.198587 5.493522 1.997645 8.190342l36.956418 129.946756c.199764 5.693286 8.58987 5.693286 8.889516 0l38.35477-129.946756c.799057-2.796702 1.598115-5.593404 2.097526-8.390106 1.098704-5.793168 5.393639-10.487632 10.987043-12.085747 3.995288-1.098705 7.990577-2.497056 11.7861-4.195053l83.301764-35.158538c5.593404-.299647 5.593404-8.489988 0-8.889517l-83.401646-35.957596c-3.895406-1.697998-7.890694-3.096349-11.885983-4.294935-3.995288-1.198587-9.888338-6.392462-10.88716-12.285512-.998823-5.89305-1.198587-5.39364-1.997645-8.090459zM16058.265463 167.601806l-7.586657-26.333684c-.03993-1.137998-1.71698-1.137998-1.776875 0l-7.466867 26.293754c-.159719.539052-.299473 1.098069-.399298 1.657086-.199648 1.157963-1.018209 2.096313-2.136242 2.435716-1.118034.339403-1.657086.539052-2.455681.878455l-16.331277 7.06757c-1.118033.059894-1.118033 1.697015 0 1.776874l16.331277 7.087534c.798595.339404 1.617155.618912 2.45568.878455.838526.259544 1.936595 1.297718 2.136243 2.455681.19965 1.157964.239579 1.09807.399298 1.637121l7.387008 25.974316c.03993 1.137999 1.71698 1.137999 1.776875 0l7.666516-25.974316c.159719-.559017.319438-1.118034.419262-1.67705.219614-1.157964 1.078104-2.096313 2.196138-2.415752.798595-.219613 1.59719-.499122 2.355856-.838525l16.650715-7.02764c1.118033-.059894 1.118033-1.697015 0-1.776874l-16.67068-7.18736c-.77863-.339402-1.577226-.61891-2.375821-.85849-.798596-.239578-1.976524-1.277752-2.176173-2.45568-.199649-1.177928-.239578-1.078104-.399297-1.617156zM16541.397815 237.903278l-37.997994-131.893038c-.19999-5.699699-8.599547-5.699699-8.89953 0l-37.398026 131.693049c-.799958 2.699857-1.499921 5.49971-1.999895 8.299561-.999947 5.799694-5.09973 10.499446-10.699435 12.199356-5.599704 1.69991-8.299562 2.699858-12.29935 4.399768l-81.795683 35.398132c-5.599704.299984-5.599704 8.49955 0 8.89953l81.795682 35.498126c3.999789 1.69991 8.099573 3.099836 12.29935 4.399768 4.19978 1.299931 9.699489 6.499657 10.699436 12.29935.999947 5.799694 1.199937 5.49971 1.999895 8.199568l36.998046 130.093132c.19999 5.6997 8.599546 5.6997 8.89953 0l38.397974-130.093132c.799957-2.799853 1.599915-5.599705 2.099889-8.399557 1.099942-5.799694 5.399715-10.499446 10.99942-12.099361 3.999788-1.099942 7.999577-2.499868 11.799376-4.199779l83.395598-35.198142c5.599704-.299984 5.599704-8.49955 0-8.89953l-83.495592-35.9981c-3.899795-1.69991-7.899583-3.099836-11.899372-4.299773-3.99979-1.199936-9.899478-6.399662-10.899425-12.29935-.999947-5.899689-1.199937-5.399715-1.999894-8.099573zM16658.279353 167.58097l-7.599406-26.377937c-.039997-1.13991-1.719866-1.13991-1.779861 0l-7.479415 26.337941c-.159988.539958-.299977 1.099914-.399969 1.65987-.199984 1.15991-1.01992 2.099836-2.139833 2.43981-1.119912.339973-1.65987.539957-2.459807.87993l-16.358721 7.079447c-1.119913.059996-1.119913 1.699867 0 1.779861l16.35872 7.099445c.799938.339974 1.619874.619952 2.459808.879931.839935.25998 1.939849 1.299899 2.139833 2.459808.199984 1.15991.239981 1.099914.399969 1.639872l7.399421 26.017966c.039997 1.13991 1.719866 1.13991 1.779861 0l7.6794-26.017966c.159987-.559956.319975-1.119913.419967-1.679869.219983-1.15991 1.079915-2.099836 2.199828-2.41981.799937-.219984 1.599875-.499962 2.359815-.839935l16.678696-7.03945c1.119913-.059995 1.119913-1.699867 0-1.77986l-16.698694-7.199438c-.779939-.339973-1.579877-.619951-2.379814-.859932-.799937-.239982-1.979845-1.2799-2.17983-2.459808-.199984-1.179908-.23998-1.079916-.399968-1.619874zM17141.34198 237.987029l-37.946745-131.715151c-.19972-5.692012-8.587948-5.692012-8.887527 0l-37.347587 131.515431c-.798878 2.696216-1.497897 5.492292-1.997197 8.288368-.998598 5.791872-5.092852 10.485285-10.685004 12.182903-5.592152 1.697617-8.288369 2.696216-12.282763 4.393834l-81.685363 35.350389c-5.592152.29958-5.592152 8.488088 0 8.887527l81.685363 35.45025c3.994394 1.697617 8.088649 3.095655 12.282763 4.393833 4.194114 1.298178 9.686406 6.49089 10.685004 12.282762.998599 5.791872 1.198319 5.492293 1.997197 8.188509l36.948147 129.917674c.19972 5.692011 8.587948 5.692011 8.887528 0l38.346185-129.917674c.798879-2.796076 1.597757-5.592152 2.097057-8.388228 1.098458-5.791872 5.392432-10.485285 10.984584-12.083043 3.994394-1.098458 7.988789-2.496496 11.783463-4.194114l83.28312-35.15067c5.592153-.29958 5.592153-8.488087 0-8.887527l-83.38298-35.949548c-3.894534-1.697618-7.888928-3.095656-11.883323-4.293974-3.994394-1.198318-9.886126-6.391031-10.884724-12.282763-.998599-5.891731-1.198318-5.392432-1.997197-8.088648zM17258.268396 167.541349l-7.589349-26.34303c-.039944-1.138403-1.71759-1.138403-1.777505 0l-7.469518 26.303086c-.159775.539243-.29958 1.098458-.39944 1.657673-.199719 1.158375-1.01857 2.097057-2.137 2.43658-1.11843.339524-1.657674.539244-2.456553.878767l-16.337072 7.070078c-1.11843.059916-1.11843 1.697618 0 1.777506l16.337072 7.09005c.79888.339523 1.61773.61913 2.456553.878766.838823.259636 1.937281 1.298179 2.137 2.456553.19972 1.158374.239665 1.098458.39944 1.637702l7.38963 25.983534c.039944 1.138403 1.71759 1.138403 1.777505 0l7.669237-25.983534c.159776-.559216.319552-1.11843.419412-1.677646.219691-1.158374 1.078486-2.097057 2.196916-2.416609.79888-.219691 1.597758-.499299 2.356693-.838822l16.656624-7.030134c1.11843-.059916 1.11843-1.697618 0-1.777506l-16.676596-7.18991c-.778907-.339523-1.577786-.61913-2.376665-.858794-.798878-.239664-1.977225-1.278206-2.176944-2.456553-.19972-1.178346-.239664-1.078486-.39944-1.61773z" fill="#f8bd2e"/><g><path d="M17741.047155 238.429268l-37.676133-130.775838c-.198295-5.65142-8.526703-5.65142-8.824146 0l-37.081246 130.577543c-.793182 2.676988-1.487216 5.453124-1.982955 8.22926-.991477 5.750568-5.056533 10.41051-10.608805 12.096022-5.552272 1.68551-8.22926 2.676988-12.19517 4.3625l-81.102831 35.09829c-5.552272.297444-5.552272 8.427557 0 8.824147l81.102832 35.19744c3.965908 1.68551 8.030965 3.073579 12.195169 4.3625 4.164204 1.28892 9.617328 6.4446 10.608805 12.195168.991478 5.750568 1.189773 5.453125 1.982955 8.130113l36.684655 128.991179c.198295 5.65142 8.526703 5.65142 8.824146 0l38.072724-128.991179c.793181-2.776136 1.586363-5.552272 2.082102-8.328408 1.090624-5.750568 5.353976-10.41051 10.906248-11.996874 3.965909-1.090625 7.931818-2.478693 11.69943-4.164204l82.689196-34.899996c5.552272-.297443 5.552272-8.427556 0-8.824147l-82.788343-35.693178c-3.86676-1.68551-7.83267-3.073579-11.798578-4.263351-3.965909-1.189773-9.815624-6.345454-10.807101-12.19517-.991477-5.849715-1.189773-5.353976-1.982954-8.030965zM17858.20943 167.34494l-7.535226-26.155167c-.039659-1.130284-1.70534-1.130284-1.764829 0l-7.41625 26.115508c-.158635.535398-.297442 1.090625-.39659 1.645852-.198295 1.150114-1.011307 2.082102-2.121761 2.419204-1.110454.337103-1.645852.535398-2.439034.8725l-16.220566 7.019659c-1.110455.059488-1.110455 1.68551 0 1.764829l16.220566 7.039488c.793182.337102 1.606193.614716 2.439034.8725.83284.257784 1.923466 1.28892 2.121761 2.439034.198296 1.150113.237955 1.090624.39659 1.626022l7.336932 25.798236c.039659 1.130284 1.70534 1.130284 1.76483 0l7.614544-25.798236c.158636-.555227.317273-1.110454.41642-1.665681.218125-1.150114 1.070796-2.082103 2.18125-2.399375.793182-.218125 1.586364-.495739 2.339886-.832841l16.53784-6.98c1.110454-.059488 1.110454-1.68551 0-1.764829l-16.55767-7.138635c-.773352-.337102-1.566533-.614716-2.359715-.85267-.793182-.237955-1.963125-1.269091-2.16142-2.439034-.198296-1.169943-.237955-1.070796-.396591-1.606193z" fill="#f8bd2e"/></g><g><path d="M18340.447086 239.329372l-37.125345-128.864024c-.195396-5.568802-8.402051-5.568802-8.695146 0l-36.539155 128.668627c-.781586 2.637854-1.465474 5.373405-1.953965 8.108957-.976983 5.6665-4.982612 10.258319-10.453715 11.91919-5.471104 1.66087-8.108957 2.637853-12.016888 4.298723l-79.917189 34.58519c-5.471103.293094-5.471103 8.304353 0 8.695146l79.917189 34.682887c3.90793 1.660871 7.91356 3.028647 12.016888 4.298724 4.103327 1.270078 9.476732 6.350388 10.453715 12.016888.976983 5.6665 1.17238 5.373405 1.953965 8.011259l36.148362 127.105454c.195396 5.568802 8.402051 5.568802 8.695146 0l37.516138-127.105454c.781586-2.735552 1.563172-5.471104 2.051663-8.206655 1.074681-5.6665 5.275707-10.25832 10.74681-11.821492 3.907931-1.07468 7.815862-2.442456 11.528397-4.103327l81.48036-34.389793c5.471104-.293095 5.471104-8.304353 0-8.695146l-81.578058-35.171379c-3.810233-1.66087-7.718164-3.028646-11.626095-4.201026-3.907931-1.172379-9.67213-6.25269-10.649112-12.016887-.976983-5.764199-1.17238-5.275707-1.953965-7.91356zM18458.089417 166.945184l-7.425069-25.772805c-.039079-1.11376-1.68041-1.11376-1.739029 0l-7.30783 25.733726c-.156318.52757-.293096 1.07468-.390794 1.621791-.195397 1.1333-.996522 2.051664-2.090743 2.383838-1.09422.332174-1.621791.52757-2.403378.859745l-15.983437 6.917038c-1.094221.058619-1.094221 1.66087 0 1.739029l15.983437 6.936577c.781587.332174 1.582712.60573 2.403378.859745.820665.254016 1.895346 1.270078 2.090743 2.403378.195397 1.1333.234476 1.07468.390793 1.602251l7.229672 25.421091c.03908 1.11376 1.68041 1.11376 1.73903 0l7.503227-25.42109c.156317-.54711.312635-1.094221.410333-1.641332.214936-1.1333 1.055141-2.051663 2.149362-2.364298.781586-.214936 1.563172-.488491 2.30568-.820665l16.296071-6.877959c1.094221-.058619 1.094221-1.66087 0-1.73903l-16.315611-7.034275c-.762047-.332174-1.543633-.60573-2.32522-.840205-.781586-.234476-1.934425-1.250538-2.129822-2.403378-.195396-1.15284-.234476-1.05514-.390793-1.582712z" fill="#f8bd2e"/></g><g><path d="M18939.46116 240.808259l-36.220388-125.722877c-.190634-5.433059-8.197246-5.433059-8.483197 0l-35.648488 125.532243c-.762535 2.573554-1.429752 5.242425-1.906336 7.911296-.953168 5.528375-4.861158 10.008265-10.1989 11.62865-5.33774 1.620387-7.911295 2.573555-11.723967 4.19394l-77.969154 33.742153c-5.337742.28595-5.337742 8.101929 0 8.483196l77.969154 33.837469c3.812672 1.620386 7.720661 2.954821 11.723968 4.19394 4.003306 1.239118 9.24573 6.195593 10.198899 11.723968.953168 5.528375 1.143801 5.242425 1.906336 7.815979l35.267221 124.007174c.190634 5.433058 8.197246 5.433058 8.483196 0l36.601657-124.007174c.762534-2.668871 1.525069-5.337742 2.001653-8.006613 1.048485-5.528375 5.147108-10.008265 10.48485-11.533334 3.812672-1.048485 7.625345-2.38292 11.247383-4.003306l79.494223-33.551519c5.337742-.28595 5.337742-8.101929 0-8.483196l-79.58954-34.314053c-3.717355-1.620386-7.530028-2.954821-11.3427-4.098623-3.812673-1.143802-9.436365-6.100276-10.389533-11.723968-.953168-5.623692-1.143802-5.147108-1.906336-7.720662zM19057.892232 166.288377l-7.244078-25.144575c-.038126-1.086612-1.639449-1.086612-1.696639 0l-7.129698 25.106448c-.152507.514711-.28595 1.048485-.381267 1.58226-.190633 1.105675-.972231 2.001653-2.03978 2.32573-1.067548.324077-1.582259.51471-2.344793.838788l-15.593831 6.74843c-1.067548.05719-1.067548 1.620386 0 1.69664l15.59383 6.767493c.762535.324077 1.544133.590964 2.344794.838788.800662.247824 1.849147 1.239119 2.03978 2.344794.190634 1.105675.22876 1.048485.381267 1.563196l7.053445 24.801434c.038126 1.086612 1.639449 1.086612 1.696639 0l7.320331-24.801434c.152507-.533775.305014-1.067549.40033-1.601323.209698-1.105675 1.029422-2.001653 2.09697-2.306667.762535-.209697 1.52507-.476584 2.249477-.800661l15.898845-6.710304c1.067548-.05719 1.067548-1.620386 0-1.696639l-15.917908-6.86281c-.743471-.324078-1.506006-.590965-2.26854-.819725-.762535-.22876-1.887273-1.220055-2.077907-2.344794-.190633-1.124738-.22876-1.029421-.381267-1.544132z" fill="#f8bd2e"/></g><g><path d="M19537.985612 243.021582l-34.86602-121.021794c-.183506-5.229903-7.890732-5.229903-8.16599 0l-34.315505 120.838288c-.734021 2.477323-1.37629 5.046398-1.835053 7.615473-.917527 5.321656-4.679387 9.634032-9.817538 11.193828-5.13815 1.559796-7.615473 2.477323-11.28558 4.037118l-75.053698 32.480451c-5.13815.275258-5.13815 7.798979 0 8.16599l75.053698 32.572203c3.670107 1.559796 7.431967 2.844333 11.28558 4.037118 3.853613 1.192785 8.90001 5.963925 9.817538 11.28558.917527 5.321657 1.101032 5.046398 1.835053 7.523721l33.948494 119.370245c.183506 5.229903 7.890732 5.229903 8.16599 0l35.233031-119.370245c.734022-2.569075 1.468043-5.13815 1.926807-7.707226 1.00928-5.321655 4.954645-9.634032 10.092795-11.102075 3.670108-1.00928 7.340215-2.293817 10.826817-3.853613l76.52174-32.296945c5.138151-.275258 5.138151-7.798979 0-8.16599l-76.613493-33.030966c-3.578354-1.559796-7.248462-2.844334-10.91857-3.945366-3.670107-1.101032-9.083515-5.872172-10.001042-11.28558-.917527-5.413409-1.101032-4.954645-1.835054-7.431968zM19657.597122 165.30539l-6.973204-24.204358c-.0367-1.04598-1.578146-1.04598-1.633198 0l-6.8631 24.167658c-.146805.495464-.275259 1.00928-.367011 1.523094-.183506 1.064332-.935878 1.926807-1.963508 2.238766-1.02763.31196-1.523094.495465-2.257116.807424l-15.01074 6.49609c-1.02763.055051-1.02763 1.559796 0 1.633198l15.01074 6.51444c.734022.31196 1.486394.568867 2.257116.807424.770723.238557 1.780002 1.192785 1.963508 2.257116.183505 1.064331.220206 1.00928.36701 1.504744l6.7897 23.87405c.0367 1.04598 1.578146 1.04598 1.633197 0l7.046606-23.87405c.146805-.513815.293609-1.02763.385362-1.541445.201856-1.064331.990929-1.926806 2.018559-2.220415.734021-.201856 1.468043-.458763 2.165363-.770723l15.304348-6.459389c1.02763-.055051 1.02763-1.559795 0-1.633197l-15.322698-6.606194c-.715671-.311959-1.449693-.568867-2.183714-.789073-.734022-.220206-1.816703-1.174434-2.000209-2.257116-.183505-1.082682-.220206-.99093-.36701-1.486394z" fill="#f8bd2e"/></g><g><path d="M20135.900404 246.149394l-32.952062-114.37834c-.173432-4.94281-7.457571-4.94281-7.71772 0l-32.431765 114.204908c-.693728 2.34133-1.30074 4.769377-1.73432 7.197424-.867159 5.029525-4.422513 9.105175-9.278606 10.579346-4.856094 1.474171-7.197424 2.34133-10.666062 3.815502l-70.933649 30.697447c-4.856093.260148-4.856093 7.370856 0 7.71772l70.933649 30.784163c3.468638 1.47417 7.023992 2.688194 10.666062 3.815501 3.64207 1.127308 8.411447 5.636537 9.278607 10.666063.86716 5.029525 1.040591 4.769377 1.734319 7.110708l32.084902 112.817453c.173432 4.94281 7.457572 4.94281 7.71772 0l33.298925-112.817453c.693728-2.428047 1.387455-4.856094 1.821035-7.28414.953876-5.029526 4.682661-9.105175 9.538755-10.49263 3.468638-.953876 6.937276-2.1679 10.232482-3.64207l72.321104-30.524016c4.856093-.260147 4.856093-7.370855 0-7.71772l-72.40782-31.217742c-3.381922-1.474171-6.85056-2.688194-10.319198-3.728786-3.468638-1.040591-8.58488-5.54982-9.452039-10.666062-.86716-5.116241-1.040591-4.682661-1.734319-7.023992zM20257.18008 163.91626l-6.590412-22.875669c-.034686-.988561-1.491514-.988561-1.543543 0l-6.486354 22.840982c-.138745.468266-.260148.953876-.346863 1.439485-.173432 1.005905-.884503 1.821035-1.855722 2.11587-.971219.294833-1.439485.468265-2.133212.7631l-14.18673 6.139489c-.971219.05203-.971219 1.474171 0 1.543544l14.18673 6.156832c.693727.294835 1.404798.53764 2.133212.7631.728414.225462 1.68229 1.127308 1.855722 2.133213.173431 1.005905.208118.953876.346863 1.422142l6.41698 22.56349c.034687.988562 1.491515.988562 1.543545 0l6.659785-22.56349c.138745-.48561.27749-.971219.364207-1.456828.190775-1.005905.936532-1.821035 1.90775-2.098526.693728-.190775 1.387456-.43358 2.046497-.728414l14.464221-6.104803c.971219-.05203.971219-1.474171 0-1.543544l-14.481564-6.243549c-.676384-.294834-1.370112-.537639-2.06384-.745757-.693727-.208118-1.716975-1.109964-1.890407-2.133212-.173432-1.023248-.208119-.936533-.346864-1.404799z" fill="#f8bd2e"/></g><g><path d="M20733.109366 250.335951l-30.39024-105.48612c-.159948-4.558536-6.87779-4.558536-7.117713 0l-29.910394 105.326171c-.639794 2.159307-1.199614 4.398588-1.599486 6.637868-.799743 4.63851-4.07869 8.397303-8.557252 9.756867-4.478561 1.359563-6.637868 2.159306-9.83684 3.51887l-65.418989 28.310907c-4.478562.239923-4.478562 6.797816 0 7.117714l65.418989 28.390881c3.198972 1.359563 6.47792 2.479204 9.83684 3.51887 3.358922 1.039666 7.757509 5.19833 8.557252 9.83684.799743 4.63851.959692 4.398588 1.599486 6.557894l29.590496 104.046583c.15995 4.558536 6.877791 4.558536 7.117714 0l30.710137-104.046583c.639794-2.23928 1.279589-4.478561 1.67946-6.717842.879718-4.63851 4.318614-8.397303 8.797175-9.676892 3.198973-.879718 6.397945-1.999358 9.43697-3.358921l66.698577-28.150959c4.478562-.239923 4.478562-6.797816 0-7.117714l-66.778552-28.790753c-3.118998-1.359563-6.317971-2.479203-9.516944-3.438895-3.198972-.959692-7.917457-5.118356-8.7172-9.83684-.799743-4.718485-.959692-4.318614-1.599486-6.47792zM20856.621873 162.056916l-6.078048-21.097224c-.03199-.911707-1.375558-.911707-1.423542 0l-5.98208 21.065234c-.127958.431861-.239922.879718-.319896 1.327574-.159949.927702-.815738 1.67946-1.71145 1.951373-.895713.271913-1.327574.431861-1.967369.703774l-13.083798 5.662181c-.895712.047985-.895712 1.359564 0 1.423543l13.083798 5.678176c.639795.271913 1.295584.495841 1.967368.703774.671785.207934 1.551502 1.039666 1.71145 1.967368.15995.927703.191939.879718.319898 1.31158l5.9181 20.809316c.031989.911707 1.375557.911707 1.423542 0l6.142027-20.809317c.12796-.447856.255918-.895712.335892-1.343568.175944-.927702.863723-1.67946 1.759435-1.935379.639795-.175943 1.27959-.399871 1.887394-.671784l13.339716-5.630192c.895712-.047984.895712-1.359563 0-1.423542l-13.35571-5.758151c-.6238-.271913-1.263595-.49584-1.90339-.68778-.639794-.191937-1.58349-1.02367-1.74344-1.967367-.159948-.943697-.191938-.863723-.319897-1.295584z" fill="#f8bd2e"/></g><g><path d="M21329.642586 255.53612l-27.20817-94.440994c-.143202-4.081225-6.15764-4.081225-6.37244 0l-26.77857 94.297793c-.572803 1.933213-1.074006 3.938025-1.432008 5.942838-.716005 4.152826-3.651623 7.518047-7.661248 8.735255-4.009626 1.217207-5.942838 1.933212-8.806856 3.15042l-58.569168 25.346559c-4.009625.214801-4.009625 6.086038 0 6.37244l58.569168 25.41816c2.864018 1.217208 5.799637 2.219614 8.806856 3.15042s6.945243 4.654029 7.661248 8.806855c.716004 4.152826.859205 3.938025 1.432009 5.871237l26.492166 93.152186c.143201 4.081226 6.15764 4.081226 6.37244 0l27.494573-93.152186c.572804-2.004813 1.145608-4.009625 1.50361-6.014438.787605-4.152826 3.866424-7.518047 7.87605-8.663654 2.864017-.787605 5.728035-1.790011 8.448853-3.00722l59.714775-25.203358c4.009625-.214801 4.009625-6.086038 0-6.37244l-59.786376-25.776162c-2.792417-1.217208-5.656435-2.219614-8.520453-3.07882-2.864018-.859205-7.088445-4.582428-7.80445-8.806855-.716004-4.224426-.859205-3.866424-1.432009-5.799636zM21455.928517 159.747404l-5.441634-18.888199c-.02864-.816245-1.231528-.816245-1.274488 0l-5.355714 18.859559c-.11456.386642-.214801.787605-.286401 1.188568-.143201.830565-.730325 1.503609-1.53225 1.74705-.801925.243442-1.188568.386643-1.761371.630084l-11.713834 5.069312c-.801925.04296-.801925 1.217208 0 1.274488l11.713834 5.083632c.572803.243442 1.159927.443923 1.76137.630084.601445.186161 1.38905.930806 1.53225 1.761371.143201.830566.171842.787605.286402 1.174248l5.298434 18.630437c.02864.816245 1.231527.816245 1.274488 0l5.498914-18.630437c.114561-.400963.229122-.801925.300722-1.202888.157521-.830565.773285-1.50361 1.57521-1.73273.572804-.157522 1.145607-.358003 1.68977-.601444l11.942956-5.040672c.801925-.04296.801925-1.217208 0-1.274488l-11.957275-5.155233c-.558484-.243441-1.131287-.443922-1.704091-.615764-.572804-.17184-1.417689-.916485-1.56089-1.76137-.1432-.844886-.171841-.773285-.286402-1.159928z" fill="#f8bd2e"/></g><g><path d="M21925.76622 261.350671l-23.650154-82.090926c-.124474-3.547523-5.352403-3.547523-5.539114 0l-23.27673 81.966451c-.497898 1.680406-.933559 3.423049-1.244745 5.165692-.622372 3.60976-3.1741 6.53491-6.659385 7.592944-3.485286 1.058033-5.165691 1.680405-7.655181 2.738438l-50.910066 22.031985c-3.485286.186712-3.485286 5.290166 0 5.539115l50.910066 22.094222c2.48949 1.058033 5.041217 1.929354 7.65518 2.738439 2.613965.809084 6.037014 4.04542 6.659386 7.65518.622373 3.60976.746847 3.42305 1.244745 5.103455l23.02778 80.970655c.124475 3.547523 5.352404 3.547523 5.539115 0l23.899102-80.970655c.497898-1.742643.995796-3.485286 1.306982-5.227929.68461-3.60976 3.360812-6.53491 6.846097-7.530706 2.48949-.68461 4.97898-1.555932 7.343995-2.613965l51.905862-21.90751c3.485286-.186712 3.485286-5.290166 0-5.539115l-51.968099-22.405408c-2.427252-1.058033-4.916742-1.929354-7.406232-2.676201-2.48949-.746847-6.161487-3.983184-6.78386-7.655181-.622372-3.671998-.746847-3.360812-1.244745-5.041217zM22055.153244 157.165032l-4.73003-16.418185c-.024896-.709505-1.070481-.709505-1.107824 0l-4.655346 16.39329c-.09958.336081-.186711.68461-.248949 1.033138-.124474.721953-.63482 1.306983-1.331877 1.51859-.697057.211606-1.033138.33608-1.531036.547687l-10.182013 4.406397c-.697057.037342-.697057 1.058033 0 1.107823l10.182013 4.418844c.497898.211607 1.008244.385871 1.531036.547688.522793.161817 1.207403.809084 1.331877 1.531036.124475.721952.14937.68461.24895 1.020691l4.605556 16.194131c.024894.709505 1.07048.709505 1.107822 0l4.77982-16.19413c.09958-.34853.19916-.697058.261397-1.045587.136922-.721952.672163-1.306982 1.36922-1.506141.497898-.136922.995796-.311186 1.468799-.522793l10.381172-4.381502c.697057-.037342.697057-1.058033 0-1.107823l-10.39362-4.481081c-.48545-.211607-.983348-.385871-1.481246-.53524-.497898-.14937-1.232298-.796637-1.356772-1.531037-.124475-.7344-.14937-.672162-.24895-1.008243z" fill="#f8bd2e"/></g><g><path d="M22521.90249 267.146266l-20.103735-69.78112c-.105809-3.01556-4.549792-3.01556-4.708506 0l-19.786307 69.67531c-.423236 1.428424-.793568 2.909752-1.058091 4.39108-.529046 3.068464-2.698133 5.554979-5.660788 6.454356-2.962656.899378-4.39108 1.428424-6.507262 2.327801l-43.275933 18.728216c-2.962655.158713-2.962655 4.496888 0 4.708506l43.275933 18.78112c2.116183.899378 4.28527 1.640041 6.507262 2.3278 2.221991.68776 5.131742 3.438797 5.660788 6.507262.529046 3.068465.634855 2.909751 1.058091 4.338174l19.574689 68.828837c.105809 3.01556 4.549792 3.01556 4.708506 0l20.315352-68.828837c.423237-1.481328.846473-2.962655 1.110996-4.443983.58195-3.068465 2.856847-5.55498 5.819502-6.401452 2.116183-.58195 4.232365-1.322614 6.242739-2.221992l44.122406-18.622406c2.962655-.158714 2.962655-4.496888 0-4.708506l-44.17531-19.045643c-2.063279-.899378-4.179461-1.640042-6.295644-2.274897-2.116183-.634854-5.237552-3.385892-5.766597-6.50726-.529046-3.12137-.634855-2.856847-1.058092-4.28527zM22654.380498 154.591079l-4.020747-13.956224c-.021162-.603112-.909958-.603112-.941701 0l-3.957262 13.935062c-.084647.285684-.158713.58195-.211618.878216-.105809.613692-.539626 1.110995-1.132157 1.29087-.592532.179876-.878216.285686-1.301453.465561l-8.655186 3.745643c-.592531.031743-.592531.899378 0 .941701l8.655186 3.756224c.423237.179876.857054.328009 1.301453.46556.444398.137552 1.026348.68776 1.132157 1.301453.10581.613693.126971.58195.211618.867635l3.914938 13.765767c.021162.603112.909959.603112.941701 0l4.06307-13.765767c.084648-.296266.169295-.592531.2222-.888797.11639-.613693.57137-1.110996 1.1639-1.28029.423237-.11639.846473-.264523 1.248548-.444399l8.824481-3.724481c.592531-.031743.592531-.899378 0-.941701l-8.835062-3.809129c-.412655-.179875-.835892-.328008-1.259128-.45498-.423237-.12697-1.04751-.677178-1.15332-1.301451-.105809-.624274-.12697-.57137-.211618-.857054z" fill="#f8bd2e"/></g><g><path d="M23118.378227 272.43266l-16.868904-58.552855c-.088784-2.530335-3.8177-2.530335-3.950875 0l-16.602553 58.46407c-.355135 1.19858-.665878 2.441553-.887837 3.684524-.443918 2.574728-2.263984 4.661145-4.749928 5.415807-2.485944.754661-3.684524 1.19858-5.460198 1.953241l-36.312536 15.714716c-2.485944.133176-2.485944 3.773307 0 3.950875l36.312536 15.759108c1.775674.754661 3.59574 1.376147 5.460198 1.953241s4.30601 2.88547 4.749928 5.460198c.443919 2.574728.532702 2.441552.887837 3.640132l16.424986 57.7538c.088783 2.530336 3.817699 2.530336 3.950875 0l17.046471-57.7538c.355135-1.242972.71027-2.485944.932229-3.728916.48831-2.574727 2.39716-4.661144 4.883104-5.371414 1.775674-.48831 3.551348-1.109796 5.238238-1.864458l37.022806-15.625932c2.485944-.133175 2.485944-3.773307 0-3.950875l-37.067197-15.981067c-1.731283-.754661-3.506957-1.376147-5.28263-1.90885-1.775675-.532702-4.394794-2.841078-4.838713-5.460197-.443918-2.61912-.532702-2.39716-.887837-3.59574zM23253.675645 152.243273l-3.37378-11.71057c-.017757-.506068-.76354-.506068-.790175 0l-3.320511 11.692813c-.071027.239716-.133176.48831-.177567.736905-.088784.514946-.452797.932229-.949986 1.083161-.497189.150933-.736905.239716-1.09204.390649l-7.262507 3.142943c-.497189.026635-.497189.754661 0 .790175l7.262507 3.151821c.355135.150933.719148.27523 1.09204.390649.372892.115418.861202.577094.949986 1.09204.088783.514945.10654.48831.177567.728026l3.284997 11.55076c.017757.506067.76354.506067.790175 0l3.409294-11.55076c.071027-.248595.142054-.49719.186446-.745784.097662-.514945.479432-.932228.976621-1.074282.355135-.097663.71027-.22196 1.047648-.372892l7.40456-3.125186c.49719-.026636.49719-.754662 0-.790175l-7.413439-3.196214c-.346256-.150932-.701391-.27523-1.056526-.38177-.355135-.10654-.878958-.568215-.967742-1.09204-.088784-.523823-.10654-.479431-.177568-.719147z" fill="#f8bd2e"/></g><g><path d="M23715.317985 277.023023l-14.059986-48.80295c-.074-2.108999-3.181997-2.108999-3.292997 0l-13.837986 48.72895c-.296.999-.555 2.034998-.74 3.070997-.369999 2.145998-1.886997 3.884996-3.958995 4.513996-2.071998.628999-3.070997.998999-4.550996 1.627998l-30.26597 13.097987c-2.071997.111-2.071997 3.144997 0 3.292996l30.26597 13.134987c1.479999.629 2.996997 1.146999 4.550996 1.627999 1.553998.481 3.588996 2.404997 3.958996 4.550995.37 2.145998.444 2.034998.739999 3.033997l13.689986 48.136951c.074 2.108998 3.181997 2.108998 3.292997 0l14.207986-48.136951c.296-1.035999.591999-2.071998.776999-3.107997.407-2.145998 1.997998-3.884996 4.069996-4.476995 1.479998-.407 2.959997-.925 4.365995-1.553999l30.85797-13.023987c2.071997-.111 2.071997-3.144997 0-3.292996l-30.89497-13.319987c-1.442998-.629-2.922997-1.146999-4.402995-1.590998-1.479999-.444-3.662997-2.367998-4.032996-4.550996-.37-2.182998-.444-1.997998-.74-2.996997zM23853.063597 150.20459l-2.811997-9.76059c-.0148-.4218-.6364-.4218-.6586 0l-2.767597 9.74579c-.0592.1998-.111.407-.148.6142-.074.429199-.3774.776998-.791799.902798-.4144.1258-.6142.1998-.910199.3256l-6.053194 2.619597c-.4144.0222-.4144.629 0 .6586l6.053194 2.626997c.296.1258.5994.2294.9102.3256.310799.0962.717798.481.791798.910199.074.4292.0888.407.148.6068l2.737997 9.62739c.0148.421799.6364.421799.6586 0l2.841597-9.62739c.0592-.2072.1184-.4144.1554-.6216.0814-.4292.3996-.777.813999-.8954.296-.0814.592-.185.8732-.3108l6.171593-2.604796c.4144-.0222.4144-.629 0-.6586l-6.178994-2.663997c-.2886-.1258-.5846-.2294-.880599-.3182-.296-.0888-.7326-.4736-.8066-.910199-.074-.4366-.0888-.3996-.148-.5994z" fill="#f8bd2e"/></g><g><path d="M24312.714634 280.92805l-11.670437-40.5087c-.061423-1.750565-2.641204-1.750565-2.73334 0l-11.486166 40.447276c-.245693.829216-.460675 1.689143-.614233 2.54907-.307117 1.781277-1.566296 3.224725-3.28615 3.746824-1.719853.522098-2.549068.829215-3.777535 1.351314l-25.12215 10.871932c-1.719854.092136-1.719854 2.610493 0 2.73334l25.12215 10.902644c1.228467.522099 2.487645.952062 3.777536 1.351314 1.28989.399252 2.979032 1.996259 3.286149 3.777536.307117 1.781277.36854 1.689142.614233 2.518357l11.36332 39.95589c.061424 1.750565 2.641204 1.750565 2.73334 0l11.793283-39.95589c.245693-.859927.491386-1.719853.644945-2.57978.337828-1.781278 1.65843-3.224726 3.378284-3.716113 1.228467-.337828 2.456934-.767792 3.623978-1.28989l25.613537-10.81051c1.719853-.092135 1.719853-2.610492 0-2.73334l-25.64425-11.056202c-1.197754-.522099-2.426221-.952062-3.654688-1.320602-1.228467-.36854-3.040456-1.965547-3.347573-3.777536-.307117-1.81199-.36854-1.65843-.614233-2.487646zM24452.542927 148.47028l-2.334088-8.10174c-.012284-.350113-.52824-.350113-.546667 0l-2.297234 8.089455c-.049138.165843-.092135.337829-.122846.509814-.061424.356256-.31326.644945-.65723.749365-.343971.10442-.509814.165843-.755507.270263l-5.02443 2.174386c-.343971.018427-.343971.522099 0 .546668l5.02443 2.18053c.245693.104419.497529.190411.755507.270262.257978.07985.595806.399252.65723.755507.061423.356255.073708.337828.122846.503672l2.272664 7.991177c.012285.350113.528241.350113.546668 0l2.358657-7.991177c.049138-.171986.098277-.343971.128989-.515957.067565-.356255.331686-.644945.675657-.743222.245693-.067566.491386-.153559.724795-.257978l5.122708-2.162102c.34397-.018427.34397-.522099 0-.546668l-5.12885-2.21124c-.239551-.10442-.485245-.190413-.730938-.264121s-.608091-.39311-.669515-.755507c-.061423-.362398-.073708-.331686-.122846-.49753z" fill="#f8bd2e"/></g><g><path d="M24910.512975 284.230538l-9.64959-33.494235c-.050788-1.447438-2.183855-1.447438-2.260036 0l-9.497228 33.443448c-.20315.685629-.380905 1.396651-.507874 2.107674-.253936 1.472832-1.295076 2.666334-2.717121 3.098026-1.422045.431692-2.107674.685629-3.12342 1.11732l-20.772012 8.989356c-1.422045.07618-1.422045 2.15846 0 2.260035l20.772012 9.01475c1.015746.431691 2.056886.787202 3.12342 1.11732 1.066534.330118 2.463185 1.650588 2.717121 3.12342.253937 1.472832.304724 1.396651.507874 2.08228l9.395653 33.03715c.050787 1.447438 2.183855 1.447438 2.260036 0l9.751165-33.03715c.203149-.711022.406298-1.422045.533266-2.133067.27933-1.472832 1.371258-2.666334 2.793303-3.072633 1.015746-.27933 2.031492-.634841 2.996451-1.066534l21.178311-8.938567c1.422045-.076181 1.422045-2.158461 0-2.260036l-21.203704-9.141717c-.990353-.431692-2.0061-.787203-3.021846-1.091927-1.015746-.304724-2.513972-1.625194-2.767908-3.12342-.253937-1.498226-.304724-1.371258-.507873-2.056886zM25052.102595 147.00357l-1.929918-6.698846c-.010158-.289488-.436771-.289488-.452007 0l-1.899446 6.68869c-.04063.137125-.07618.27933-.101575.421534-.050787.294567-.259015.533267-.543424.619605-.284409.086339-.421535.137126-.624684.223465l-4.154402 1.79787c-.28441.015237-.28441.431693 0 .452008l4.154402 1.80295c.20315.086338.411377.15744.624684.223464.213307.066023.492637.330117.543424.624684.050788.294566.060945.27933.101575.416456l1.87913 6.60743c.010158.289487.436772.289487.452008 0l1.950233-6.60743c.04063-.142205.08126-.28441.106653-.426614.055866-.294566.274252-.533267.55866-.614526.20315-.055866.4063-.126969.599291-.213307l4.235662-1.787714c.28441-.015236.28441-.431692 0-.452007l-4.24074-1.828343c-.198071-.086339-.40122-.15744-.60437-.218386-.203149-.060944-.502794-.325038-.553581-.624684-.050788-.299645-.060945-.274251-.101575-.411377z" fill="#f8bd2e"/></g><g><path d="M25508.651044 287.023435l-7.940572-27.562142c-.041792-1.191086-1.797077-1.191086-1.859765 0l-7.815194 27.52035c-.16717.564198-.313444 1.149292-.417925 1.734387-.208962 1.211982-1.065708 2.194105-2.235898 2.549341-1.17019.355236-1.734388.564199-2.570237.919435l-17.093125 7.39727c-1.17019.062688-1.17019 1.77618 0 1.859765l17.093125 7.418165c.83585.355236 1.692595.647784 2.570237.919435.877642.27165 2.026936 1.358255 2.235898 2.570237.208962 1.211982.250755 1.149293.417925 1.713492l7.731609 27.18601c.041792 1.191085 1.797076 1.191085 1.859765 0l8.024157-27.18601c.16717-.585095.33434-1.17019.43882-1.755284.22986-1.211982 1.128398-2.194106 2.298587-2.528445.83585-.229859 1.6717-.522406 2.465757-.877642l17.427464-7.355477c1.17019-.062689 1.17019-1.77618 0-1.859766l-17.44836-7.522646c-.814954-.355236-1.650804-.647784-2.486653-.898539-.83585-.250754-2.068728-1.337359-2.27769-2.570237-.208963-1.232878-.250755-1.128397-.417925-1.692596zM25651.730209 145.763183l-1.588115-5.512428c-.008358-.238217-.359415-.238217-.371953 0l-1.563038 5.50407c-.033434.11284-.06269.229858-.083585.346877-.041793.242397-.213142.438821-.44718.509869-.234038.071047-.346878.11284-.514047.183886l-3.418625 1.479454c-.234038.012538-.234038.355236 0 .371953l3.418625 1.483633c.16717.071048.338519.129557.514047.183887.175528.05433.405387.271652.44718.514048.041792.242396.05015.229859.083585.342698l1.546321 5.437202c.008359.238217.359416.238217.371953 0l1.604832-5.437202c.033434-.117019.066868-.234038.087764-.351057.045972-.242396.22568-.43882.459717-.505689.16717-.045971.33434-.10448.493152-.175528l3.485492-1.471095c.234038-.012538.234038-.355236 0-.371953l-3.489672-1.50453c-.16299-.071047-.33016-.129556-.49733-.179707-.16717-.050151-.413746-.267472-.455538-.514048-.041793-.246576-.050151-.22568-.083585-.33852z" fill="#f8bd2e"/></g><g><path d="M26107.073893 289.38916l-6.492945-22.537356c-.034174-.973942-1.469456-.973942-1.520716 0l-6.390426 22.503182c-.136694.461341-.2563.939769-.341734 1.418196-.170867.991029-.871422 1.794104-1.828277 2.084578-.956855.290474-1.418196.46134-2.101664.751815l-13.97692 6.048691c-.956855.05126-.956855 1.45237 0 1.520716l13.97692 6.065778c.683468.290474 1.384023.529688 2.101664.751815.717642.222127 1.65741 1.110636 1.828277 2.101664.170867.991029.20504.939769.341734 1.40111l6.322079 22.229795c.034173.973942 1.469456.973942 1.520716 0l6.561292-22.229795c.136694-.478428.273388-.956856.358821-1.435283.187954-.991029.922682-1.794104 1.879537-2.06749.683468-.187954 1.366936-.427168 2.01623-.717642l14.250308-6.014518c.956855-.05126.956855-1.45237 0-1.520716l-14.267394-6.151212c-.666381-.290474-1.34985-.529688-2.033317-.734728-.683468-.20504-1.691584-1.093549-1.86245-2.101664-.170868-1.008116-.20504-.922682-.341735-1.384023zM26251.414779 144.712512l-1.29859-4.507472c-.006834-.194788-.29389-.194788-.304143 0l-1.278085 4.500637c-.027339.092268-.05126.187954-.068347.28364-.034173.198205-.174284.35882-.365655.416915-.191371.058094-.28364.092268-.420333.150363l-2.795384 1.209738c-.19137.010252-.19137.290474 0 .304143l2.795384 1.213156c.136694.058095.276805.105937.420333.150363.143528.044425.331482.222127.365655.420333.034174.198205.041008.187953.068347.280221l1.264416 4.44596c.006835.194788.293891.194788.304143 0l1.312259-4.44596c.027338-.095685.054677-.19137.071764-.287056.03759-.198206.184536-.35882.375907-.413498.136694-.037591.273387-.085434.403246-.143529l2.850062-1.202903c.19137-.010252.19137-.290474 0-.304143l-2.853479-1.230243c-.133276-.058095-.26997-.105937-.406663-.146945-.136694-.041008-.338317-.21871-.37249-.420333-.034174-.201623-.041009-.184537-.068347-.276805z" fill="#f8bd2e"/></g><g><path d="M26705.736261 291.395608l-5.265167-18.275674c-.027711-.789775-1.19159-.789775-1.233158 0l-5.182033 18.247962c-.110846.374104-.207836.762064-.277114 1.150024-.138557.80363-.706641 1.454849-1.48256 1.690396-.77592.235547-1.150024.374104-1.704252.60965l-11.333966 4.90492c-.77592.041567-.77592 1.177735 0 1.233158l11.333966 4.918774c.554228.235547 1.122312.429527 1.704252.609651.58194.180125 1.344003.900621 1.48256 1.704252.138557.80363.166268.762064.277114 1.136168l5.12661 18.02627c.027712.789776 1.191591.789776 1.233158 0l5.32059-18.02627c.110846-.38796.221692-.77592.29097-1.16388.152413-.80363.748208-1.454848 1.524128-1.67654.554228-.152412 1.108456-.346392 1.634973-.58194l11.555657-4.877207c.77592-.041567.77592-1.177735 0-1.233158l-11.569513-4.988053c-.540372-.235547-1.0946-.429527-1.648829-.595795-.554228-.166269-1.371714-.886765-1.510271-1.704252-.138558-.817486-.166269-.748208-.277115-1.122312zM26851.147252 143.821403l-1.053033-3.655135c-.005542-.157955-.238318-.157955-.246632 0l-1.036406 3.649593c-.02217.07482-.041568.152413-.055423.230005-.027712.160726-.141328.29097-.296512.338079-.155184.04711-.230005.07482-.34085.12193l-2.266794.980984c-.155184.008313-.155184.235547 0 .246631l2.266793.983755c.110846.04711.224463.085906.34085.12193.116389.036025.268801.180125.296513.34085.027711.160727.033253.152414.055423.227234l1.025322 3.605254c.005542.157956.238318.157956.246631 0l1.064118-3.605254c.02217-.077592.044339-.155184.058194-.232775.030483-.160727.149642-.29097.304826-.335309.110845-.030482.221691-.069278.326994-.116387l2.311132-.975442c.155184-.008313.155184-.235547 0-.246632l-2.313903-.99761c-.108074-.04711-.21892-.085906-.329766-.11916-.110845-.033253-.274342-.177352-.302054-.34085-.027711-.163497-.033254-.149641-.055423-.224462z" fill="#f8bd2e"/></g><g><path d="M27304.601719 293.097422l-4.2238-14.66103c-.02223-.63357-.955913-.63357-.989258 0l-4.157109 14.6388c-.088922.300112-.166728.611339-.222305.922566-.111152.644686-.566878 1.167103-1.189333 1.356062-.622454.18896-.922567.300112-1.367177.489072l-9.092285 3.934803c-.622454.033346-.622454.944797 0 .989258l9.092285 3.945918c.44461.18896.900336.344573 1.367177.489072.466841.144498 1.07818.722492 1.189333 1.367177.111153.644685.133383.61134.222305.911451l4.112648 14.460957c.02223.63357.955912.63357.989258 0l4.26826-14.460957c.088923-.311227.177845-.622454.233421-.933682.122268-.644685.600224-1.167102 1.222679-1.344946.44461-.122268.88922-.277882 1.3116-.466841l9.27013-3.912573c.622454-.033345.622454-.944797 0-.989258l-9.281244-4.001494c-.433496-.18896-.878106-.344573-1.322717-.477957-.44461-.133383-1.10041-.711376-1.211563-1.367177-.111153-.6558-.133383-.600224-.222305-.900336zM27450.920344 143.06559l-.84476-2.932207c-.004446-.126714-.191183-.126714-.197852 0l-.831422 2.92776c-.017784.060023-.033345.122268-.04446.184514-.022231.128937-.113376.23342-.237867.271212-.124491.037792-.184514.060022-.273436.097814l-1.818457.78696c-.12449.00667-.12449.18896 0 .197853l1.818457.789183c.088922.037792.180068.068915.273436.097814.093368.0289.215636.144499.237866.273436.022231.128937.026677.122268.044461.18229l.82253 2.892191c.004446.126714.191182.126714.197852 0l.853652-2.89219c.017784-.062246.035569-.124492.046684-.186737.024453-.128937.120045-.23342.244536-.26899.088922-.024453.177844-.055576.26232-.093368l1.854026-.782514c.12449-.00667.12449-.18896 0-.197852l-1.85625-.800299c-.086698-.037792-.17562-.068914-.264543-.095591-.088922-.026677-.220082-.142275-.242312-.273435-.02223-.13116-.026677-.120045-.044461-.180068z" fill="#f8bd2e"/></g><g><path d="M27903.641045 294.538432l-3.342022-11.600334c-.01759-.501304-.756352-.501304-.782737 0l-3.289253 11.582745c-.070358.23746-.131922.483713-.175896.729968-.087948.510098-.448534.923453-.941043 1.072965-.492509.149511-.729968.23746-1.08176.38697l-7.194142 3.113358c-.492509.026384-.492509.747558 0 .782737l7.194142 3.122152c.351792.149512.712379.272639 1.08176.386971.369381.114332.853095.571662.941043 1.08176.087948.510098.105538.483714.175896.721173l3.254074 11.442028c.01759.501304.756352.501304.782737 0l3.377201-11.442028c.070358-.246254.140717-.492509.18469-.738763.096744-.510098.47492-.923453.967428-1.06417.351792-.096743.703584-.21987 1.037786-.369381l7.334859-3.095768c.492509-.026385.492509-.747558 0-.782737l-7.343654-3.166126c-.342997-.149512-.694789-.272639-1.04658-.378176-.351792-.105538-.870685-.562867-.958633-1.08176-.087948-.518893-.105538-.474919-.175896-.712378zM28050.728209 142.425604l-.668404-2.320066c-.003518-.100261-.15127-.100261-.156548 0l-.65785 2.316549c-.014072.047491-.026385.096742-.03518.145993-.01759.10202-.089706.18469-.188208.214593-.098502.029902-.145994.047492-.216352.077394l-1.438829.622672c-.098501.005277-.098501.149511 0 .156547l1.438829.62443c.070358.029903.142476.054528.216352.077395.073876.022866.170619.114332.188208.216352.01759.10202.021108.096742.03518.144234l.650814 2.288406c.003518.10026.15127.10026.156548 0l.67544-2.288406c.014072-.04925.028143-.098501.036938-.147752.019349-.10202.094984-.18469.193486-.212834.070358-.019349.140716-.043974.207557-.073876l1.466972-.619154c.098501-.005277.098501-.149512 0-.156547l-1.468731-.633226c-.0686-.029902-.138958-.054527-.209316-.075635-.070359-.021107-.174137-.112573-.191727-.216352-.01759-.103778-.021107-.094984-.035179-.142476z" fill="#f8bd2e"/></g><g><path d="M28502.830687 295.75397l-2.598215-9.018541c-.013675-.389732-.588017-.389732-.60853 0l-2.55719 9.004866c-.0547.18461-.102561.376057-.136748.567505-.068374.39657-.348708.717928-.731603.834164s-.567505.18461-.841.300846l-5.593 2.420442c-.382895.020512-.382895.58118 0 .60853l5.593 2.427279c.273495.116236.55383.21196.841.300846.287171.088886.663229.444431.731603.841001.068374.39657.082049.376057.136748.560667l2.52984 8.895468c.013676.389732.588018.389732.60853 0l2.625565-8.895468c.0547-.191447.109398-.382894.143585-.574342.075212-.39657.36922-.717928.752115-.827326.273497-.075212.546993-.170935.806814-.287171l5.702398-2.406768c.382895-.020512.382895-.58118 0-.60853l-5.709235-2.461466c-.266659-.116236-.540155-.21196-.813652-.294008-.273496-.08205-.676903-.437595-.745277-.841002-.068374-.403407-.082049-.36922-.136748-.55383zM28650.566137 141.885757l-.519643-1.803708c-.002735-.077947-.117603-.077947-.121705 0l-.511439 1.800973c-.01094.036922-.020512.075212-.02735.113501-.013674.079314-.06974.143586-.14632.166833-.076579.023247-.1135.036922-.1682.060169l-1.1186.484088c-.076579.004103-.076579.116236 0 .121706l1.1186.485456c.0547.023247.110766.042392.1682.06017.057434.017777.132646.088886.14632.1682.013676.079314.01641.075211.02735.112133l.505969 1.779094c.002735.077946.117603.077946.121705 0l.525113-1.779094c.01094-.03829.02188-.076579.028717-.114868.015043-.079314.073844-.143586.150423-.165466.0547-.015042.109399-.034187.161363-.057434l1.14048-.481353c.076579-.004103.076579-.116236 0-.121706l-1.141847-.492293c-.053332-.023248-.108031-.042392-.16273-.058802-.0547-.01641-.135381-.087519-.149056-.1682-.013675-.080682-.01641-.073844-.02735-.110766z" fill="#f8bd2e"/></g><g><path d="M29102.151495 296.772758l-1.974802-6.854641c-.010394-.29622-.446929-.29622-.46252 0l-1.94362 6.844247c-.041575.140315-.077953.285827-.103937.431339-.051969.301417-.26504.545669-.556063.634015-.291023.088346-.431338.140315-.639212.228661l-4.251021 1.839684c-.291023.01559-.291023.441732 0 .46252l4.25102 1.84488c.207875.088347.420945.161102.639213.228661.218268.06756.504094.337795.556063.639213.051968.301417.062362.285826.103937.426141l1.922833 6.761098c.010394.29622.446929.29622.46252 0l1.995589-6.761098c.041574-.145512.08315-.291023.109133-.436535.057166-.301417.28063-.545669.571654-.628819.207874-.057165.415747-.12992.613228-.218267l4.33417-1.82929c.291023-.01559.291023-.441732 0-.46252l-4.339367-1.870865c-.202677-.088346-.410551-.161102-.618425-.223464s-.514488-.332598-.566456-.639212c-.051969-.306614-.062363-.28063-.103937-.420945zM29250.430299 141.43329l-.39496-1.370928c-.00208-.059244-.089386-.059244-.092504 0l-.388724 1.36885c-.008315.028063-.015591.057165-.020788.086267-.010394.060284-.053008.109134-.111212.126803-.058205.01767-.086268.028063-.127843.045733l-.850204.367936c-.058205.003119-.058205.088347 0 .092504l.850204.368976c.041575.01767.08419.03222.127843.045733.043653.013511.100818.067559.111212.127842.010394.060284.012473.057165.020788.085228l.384566 1.35222c.002079.059244.089386.059244.092504 0l.399118-1.35222c.008315-.029102.01663-.058204.021827-.087307.011433-.060283.056126-.109133.11433-.125763.041575-.011433.08315-.025985.122646-.043654l.866834-.365858c.058205-.003118.058205-.088346 0-.092504l-.867873-.374173c-.040536-.017669-.08211-.03222-.123685-.044693-.041575-.012472-.102898-.06652-.113292-.127842-.010393-.061323-.012472-.056126-.020787-.084189z" fill="#f8bd2e"/></g><g><path d="M29701.587749 297.618377l-1.457354-5.058552c-.00767-.218603-.329822-.218603-.341328 0l-1.434343 5.050882c-.030681.103549-.057527.210932-.076703.318316-.038351.222439-.195592.40269-.41036.467888-.214768.065197-.318317.103549-.471722.168746l-3.137146 1.35764c-.214768.011506-.214768.325987 0 .341328l3.137146 1.361475c.153405.065198.310646.11889.471722.168746.161076.049857.372009.249285.41036.471723.038352.222438.046022.210933.076703.314481l1.419003 4.98952c.00767.218603.329822.218603.341327 0l1.472695-4.98952c.03068-.107384.061362-.214768.080538-.322151.042186-.222439.207097-.40269.421865-.464053.153406-.042186.306812-.095878.452547-.161076l3.198508-1.34997c.214768-.011505.214768-.325987 0-.341327l-3.202343-1.380651c-.14957-.065198-.302976-.11889-.456382-.164911-.153406-.046022-.37968-.24545-.41803-.471723-.038352-.226273-.046022-.207097-.076703-.310646zM29850.31755 141.057732l-.291471-1.01171c-.001534-.04372-.065964-.04372-.068266 0l-.286868 1.010176c-.006136.02071-.011506.042187-.01534.063663-.007671.044488-.03912.080538-.082073.093578-.042953.01304-.063663.02071-.094344.03375l-.62743.271527c-.042953.002301-.042953.065198 0 .068266l.62743.272295c.03068.01304.062129.023778.094344.033749s.074402.049857.082072.094344c.00767.044488.009205.042187.01534.062897l.283801.997904c.001534.04372.065965.04372.068266 0l.294539-.997904c.006136-.021477.012272-.042954.016107-.06443.008438-.044488.04142-.080539.084373-.092811.030682-.008437.061363-.019176.09051-.032215l.639701-.269994c.042954-.002301.042954-.065198 0-.068266l-.640468-.27613c-.029914-.01304-.060595-.023778-.091277-.032982-.03068-.009204-.075935-.04909-.083606-.094345-.00767-.045254-.009204-.04142-.01534-.062129z" fill="#f8bd2e"/></g><g><path d="M30301.126415 298.310378l-1.033908-3.588747c-.005441-.155086-.233989-.155086-.242151 0l-1.017583 3.583305c-.021766.073462-.040812.149645-.054416.225827-.027208.157807-.138761.285685-.291127.331939-.152365.046254-.225827.073462-.334659.119716l-2.225621.963166c-.152366.008162-.152366.231269 0 .242152l2.225621.965887c.108832.046254.220385.084345.33466.119715.114273.03537.263918.176853.291126.33466.027208.157807.03265.149644.054416.223106l1.0067 3.539772c.00544.155086.233989.155086.242151 0l1.04479-3.539772c.021767-.076182.043534-.152365.057138-.228548.029929-.157807.146923-.285685.299289-.329218.108832-.029928.217664-.06802.321055-.114274l2.269154-.957724c.152366-.008163.152366-.231269 0-.242152l-2.271875-.979491c-.106111-.046254-.214944-.084345-.323776-.116995-.108832-.03265-.26936-.174132-.296568-.33466-.027208-.160527-.03265-.146923-.054416-.220385zM30450.225283 140.750399l-.206782-.71775c-.001088-.031017-.046797-.031017-.04843 0l-.203516.716662c-.004354.014692-.008163.029929-.010884.045165-.005441.031561-.027752.057137-.058225.066388-.030473.00925-.045165.014692-.066932.023943l-.445124.192633c-.030473.001633-.030473.046254 0 .04843l.445124.193178c.021767.00925.044077.016869.066932.023943.022855.007074.052784.03537.058225.066932.005442.031561.00653.029929.010884.044621l.20134.707955c.001088.031017.046797.031017.04843 0l.208958-.707955c.004353-.015236.008707-.030473.011427-.04571.005986-.03156.029385-.057136.059858-.065843.021767-.005986.043533-.013604.064211-.022855l.453831-.191545c.030473-.001632.030473-.046253 0-.04843l-.454375-.195898c-.021222-.009251-.042989-.01687-.064755-.0234-.021767-.00653-.053872-.034826-.059314-.066931-.005441-.032106-.00653-.029385-.010883-.044077z" fill="#f8bd2e"/></g><g><path d="M30900.75658 298.865129l-.694445-2.41046c-.003655-.104167-.157164-.104167-.162647 0l-.683481 2.406805c-.01462.049342-.027413.100512-.03655.151681-.018275.105995-.093202.191887-.195541.222954-.10234.031067-.151682.049342-.224782.08041l-1.494887.646931c-.10234.005483-.10234.155337 0 .162647l1.494887.648759c.0731.031067.148027.056652.224782.08041.076754.023757.177266.118786.19554.22478.018276.105995.02193.100513.03655.149855l.676172 2.377564c.003655.104167.157164.104167.162647 0l.701756-2.377564c.01462-.05117.02924-.10234.038377-.15351.020103-.105994.098685-.191886.201024-.221126.0731-.020102.1462-.045687.215644-.076754l1.524127-.643277c.10234-.005482.10234-.155336 0-.162646l-1.525955-.657897c-.071272-.031067-.144371-.056652-.21747-.078582-.0731-.02193-.180922-.11696-.199197-.224781-.018275-.107822-.02193-.098685-.03655-.148027zM31050.151316 140.504022l-.13889-.482092c-.00073-.020834-.031432-.020834-.032528 0l-.136697.48136c-.002924.00987-.005482.020103-.00731.030337-.003655.021199-.01864.038377-.039108.04459-.020468.006214-.030336.00987-.044956.016083l-.298978.129386c-.020467.001097-.020467.031067 0 .03253l.298978.129751c.01462.006214.029605.01133.044956.016082.015351.004752.035453.023757.039108.044956.003655.0212.004386.020103.00731.029971l.135235.475513c.00073.020834.031432.020834.032529 0l.140351-.475513c.002924-.010234.005848-.020468.007676-.030702.00402-.021199.019737-.038377.040204-.044225.01462-.00402.02924-.009137.04313-.01535l.304825-.128656c.020467-.001097.020467-.031067 0-.03253l-.305191-.131579c-.014255-.006213-.028875-.01133-.043495-.015716-.01462-.004386-.036184-.023392-.039839-.044956-.003655-.021565-.004386-.019737-.00731-.029606z" fill="#f8bd2e"/></g><g><path d="M31500.469028 299.296458l-.430509-1.49432c-.002266-.064576-.09743-.064576-.10083 0l-.42371 1.492054c-.009064.030589-.016995.06231-.02266.094032-.011328.06571-.057778.118957-.121222.138216-.063443.01926-.094032.030589-.139348.049849l-.926728.401053c-.063443.003398-.063443.096298 0 .10083l.926728.402185c.045316.01926.091766.03512.139348.049849.047583.014728.109894.07364.121223.139349.011329.065709.013595.06231.022658.092899l.41918 1.473926c.002266.064577.09743.064577.10083 0l.43504-1.473926c.009063-.031722.018127-.063443.023791-.095165.012463-.06571.061178-.118957.124621-.137083.045317-.012462.090634-.028323.133685-.047583l.944854-.398787c.063443-.003399.063443-.096298 0-.10083l-.945987-.40785c-.044184-.01926-.0895-.03512-.134817-.048716-.045317-.013595-.11216-.072507-.123489-.139349-.011329-.066842-.013595-.061177-.022658-.091766zM31650.093806 140.312459l-.086102-.298864c-.000453-.012915-.019486-.012915-.020166 0l-.084742.29841c-.001813.006118-.0034.012463-.004532.018807-.002266.013142-.011556.023791-.024245.027643-.012688.003852-.018806.006118-.02787.00997l-.185345.08021c-.012688.00068-.012688.01926 0 .020167l.185346.080437c.009063.003852.018353.007024.02787.00997.009516.002945.021978.014727.024244.02787.002266.013141.002719.012461.004532.01858l.083836.294784c.000453.012916.019486.012916.020166 0l.087008-.294785c.001812-.006344.003625-.012689.004758-.019033.002492-.013142.012235-.023791.024924-.027417.009063-.002492.018127-.005664.026737-.009516l.18897-.079758c.01269-.00068.01269-.01926 0-.020165l-.189197-.08157c-.008836-.003853-.0179-.007025-.026963-.009744-.009063-.002719-.022432-.014501-.024698-.02787-.002266-.013368-.002719-.012235-.004531-.018353z" fill="#f8bd2e"/></g><g><path d="M32100.255901 299.616148l-.234885-.815298c-.001236-.035232-.053158-.035232-.055013 0l-.231176.814062c-.004945.01669-.009272.033997-.012362.051304-.006181.03585-.031524.064903-.066139.07541-.034614.010509-.051304.01669-.076028.027198l-.505621.218814c-.034615.001854-.034615.05254 0 .055012l.50562.219432c.024725.010508.050068.019162.07603.027197.02596.008036.059957.040178.066138.076029.006181.03585.007417.033996.012362.050686l.228704.804172c.001236.035232.053158.035232.055013 0l.237357-.804172c.004945-.017308.00989-.034615.01298-.051922.0068-.035851.033379-.064903.067994-.074793.024724-.006799.049449-.015453.072937-.02596l.515511-.217578c.034615-.001855.034615-.05254 0-.055013l-.516129-.222522c-.024106-.010508-.048831-.019162-.073556-.02658-.024724-.007417-.061193-.03956-.067375-.076028-.00618-.036469-.007417-.033378-.012362-.050068zM32250.05118 140.170477l-.046977-.16306c-.000247-.007046-.010631-.007046-.011002 0l-.046236.162813c-.000989.003338-.001854.0068-.002472.01026-.001236.00717-.006305.012981-.013228.015083-.006923.002101-.01026.003337-.015205.00544l-.101125.043762c-.006923.00037-.006923.010508 0 .011002l.101125.043887c.004944.002101.010013.003832.015205.00544.005192.001606.011992.008035.013228.015205.001236.00717.001483.0068.002472.010137l.045741.160834c.000247.007047.010632.007047.011003 0l.047471-.160834c.00099-.003461.001978-.006923.002596-.010384.00136-.00717.006676-.01298.013599-.014959.004945-.00136.00989-.00309.014587-.005192l.103103-.043516c.006923-.00037.006923-.010508 0-.011002l-.103226-.044505c-.004821-.002101-.009766-.003832-.014711-.005315-.004945-.001484-.01224-.007912-.013475-.015206-.001237-.007294-.001484-.006676-.002473-.010014z" fill="#f8bd2e"/></g><g><path d="M32700.110453 299.83432l-.101382-.351901c-.000534-.015208-.022944-.015208-.023745 0l-.09978.351368c-.002135.007203-.004003.014674-.005337.022144-.002668.015474-.013606.028013-.028547.032549-.01494.004535-.022144.007203-.032815.011739l-.218238.094445c-.01494.0008-.01494.022678 0 .023745l.218238.094712c.010671.004535.02161.00827.032815.011739.011206.003468.02588.017341.028547.032816.002668.015474.003202.014673.005336.021877l.098714.3471c.000534.015207.022944.015207.023745 0l.102449-.3471c.002134-.00747.004269-.01494.005603-.022411.002934-.015474.014407-.028013.029347-.032282.010672-.002935.021344-.00667.031482-.011206l.222506-.093911c.01494-.0008.01494-.022678 0-.023745l-.222773-.096046c-.010405-.004535-.021077-.00827-.031749-.011472-.010671-.003202-.026412-.017075-.02908-.032816-.002668-.01574-.003202-.014407-.005336-.02161zM32850.02209 140.073582l-.020276-.07038c-.000107-.003042-.004589-.003042-.004749 0l-.019956.070273c-.000427.00144-.0008.002935-.001067.004429-.000534.003095-.002721.005603-.00571.00651-.002988.000907-.004428.00144-.006563.002348l-.043647.018889c-.002988.00016-.002988.004535 0 .004749l.043647.018942c.002135.000907.004322.001654.006563.002348.002242.000693.005176.003468.00571.006563.000533.003095.00064.002935.001067.004375l.019743.06942c.000107.003042.004589.003042.004749 0l.02049-.06942c.000426-.001494.000853-.002988.00112-.004482.000587-.003095.002882-.005602.00587-.006456.002134-.000587.004268-.001334.006296-.002241l.044501-.018783c.002988-.00016.002988-.004535 0-.004749l-.044554-.019209c-.002081-.000907-.004216-.001654-.00635-.002294-.002134-.00064-.005283-.003415-.005816-.006563-.000534-.003149-.00064-.002882-.001067-.004322z" fill="#f8bd2e"/></g><g><path d="M33300.026847 299.95973l-.024642-.085536c-.00013-.003696-.005577-.003696-.005772 0l-.024253.085406c-.000519.00175-.000973.003566-.001297.005382-.000648.003761-.003307.006809-.006939.007911-.003631.001103-.005382.001751-.007976.002854l-.053046.022956c-.003631.000195-.003631.005512 0 .005772l.053046.02302c.002594.001103.005253.00201.007976.002854.002724.000843.00629.004215.00694.007976.000648.003761.000777.003567.001296.005318l.023994.084367c.00013.003697.005577.003697.005771 0l.024902-.084367c.000519-.001816.001038-.003632.001362-.005447.000713-.003762.003502-.00681.007133-.007847.002594-.000713.005188-.001621.007652-.002724l.054084-.022826c.003631-.000195.003631-.005512 0-.005772l-.054148-.023345c-.00253-.001102-.005123-.00201-.007717-.002789-.002594-.000778-.00642-.00415-.007069-.007976-.000648-.003826-.000778-.003502-.001297-.005253zM33450.00537 140.017885l-.004929-.017107c-.000026-.00074-.001115-.00074-.001154 0l-.004851.017081c-.000104.00035-.000195.000714-.00026.001077-.00013.000752-.00066.001361-.001387.001582-.000726.00022-.001077.00035-.001595.00057l-.01061.004592c-.000726.000039-.000726.001102 0 .001154l.01061.004604c.000518.00022.00105.000402.001595.000571.000545.000169.001258.000843.001388.001595.00013.000753.000155.000714.000259.001064l.004799.016873c.000026.00074.001115.00074.001154 0l.00498-.016873c.000104-.000363.000208-.000726.000273-.00109.000142-.000752.0007-.001361.001426-.001569.00052-.000143.001038-.000324.00153-.000545l.010818-.004565c.000726-.000039.000726-.001102 0-.001154l-.01083-.00467c-.000506-.00022-.001025-.000401-.001543-.000557-.00052-.000156-.001284-.00083-.001414-.001595-.00013-.000766-.000156-.0007-.00026-.00105z" fill="#f8bd2e"/></g><g><path d="M33900 300zM34050 140z" fill="#f8bd2e"/></g></svg>